<svg id="svg" version="1.1" xmlns="http://www.w3.org/2000/svg" xmlns:xlink="http://www.w3.org/1999/xlink" width="400" height="400" viewBox="0, 0, 400,400"><g id="svgg"><path id="path0" d="M232.147 175.346 C 231.237 175.644,229.870 176.363,229.109 176.944 C 228.348 177.525,227.513 178.000,227.255 178.000 C 225.829 178.000,218.010 186.723,215.962 190.600 C 215.264 191.920,214.368 193.415,213.971 193.923 C 213.574 194.430,212.944 195.780,212.570 196.923 C 212.196 198.065,211.477 199.720,210.972 200.600 C 210.467 201.480,209.775 203.413,209.434 204.896 C 209.092 206.379,208.381 208.629,207.852 209.896 C 207.323 211.163,206.588 214.090,206.218 216.400 C 205.848 218.710,205.199 221.680,204.776 223.000 C 203.716 226.308,203.496 228.370,202.770 241.800 C 201.869 258.455,202.773 269.762,205.143 271.482 C 205.944 272.064,207.230 273.018,208.000 273.604 C 208.770 274.189,209.934 274.801,210.588 274.964 C 211.241 275.126,212.775 275.876,213.996 276.630 C 215.217 277.383,216.441 278.000,216.716 278.000 C 216.991 278.000,218.727 278.724,220.573 279.610 C 229.537 283.908,241.333 280.950,238.372 275.146 C 236.033 270.559,236.383 237.085,238.814 232.905 C 239.228 232.192,239.847 230.134,240.189 228.330 C 240.532 226.526,241.253 224.298,241.792 223.378 C 242.331 222.459,243.150 220.694,243.613 219.458 C 244.075 218.221,244.673 217.072,244.941 216.905 C 245.209 216.737,246.102 215.766,246.925 214.746 C 250.115 210.793,255.894 212.461,257.004 217.655 C 257.162 218.395,257.719 220.024,258.241 221.276 C 260.880 227.604,260.511 254.229,257.644 264.392 C 256.532 268.333,256.706 272.000,258.005 272.000 C 258.755 272.000,261.092 271.008,261.800 270.390 C 262.240 270.005,263.337 269.321,264.238 268.869 C 265.139 268.417,266.426 267.420,267.100 266.653 C 268.348 265.231,268.448 264.936,269.212 260.400 C 269.452 258.970,270.076 256.000,270.597 253.800 C 272.344 246.426,272.247 233.338,270.393 226.267 C 269.941 224.543,269.308 221.133,268.985 218.688 C 268.654 216.177,268.070 213.611,267.642 212.791 C 267.226 211.993,266.577 209.913,266.199 208.170 C 265.821 206.426,265.069 204.226,264.528 203.281 C 263.986 202.335,263.206 200.581,262.794 199.383 C 262.382 198.186,261.614 196.619,261.086 195.903 C 260.559 195.186,259.886 193.970,259.591 193.200 C 259.296 192.430,258.547 191.209,257.927 190.486 C 257.307 189.763,256.800 189.021,256.800 188.837 C 256.800 187.481,248.756 179.219,246.019 177.765 C 245.018 177.233,243.713 176.409,243.118 175.934 C 241.741 174.835,234.833 174.465,232.147 175.346 " stroke="none" fill="#f6f1f5" fill-rule="evenodd"></path><path id="path1" d="M368.424 21.112 C 368.113 21.446,367.830 22.097,367.796 22.559 C 367.737 23.369,367.488 23.408,360.968 23.605 C 354.486 23.802,352.564 24.094,353.009 24.814 C 353.121 24.996,353.038 25.253,352.824 25.385 C 352.610 25.517,352.545 25.913,352.680 26.265 C 352.899 26.835,352.512 26.874,349.101 26.618 C 344.808 26.296,343.200 26.837,343.200 28.603 C 343.200 29.830,342.437 30.046,339.177 29.743 C 335.899 29.439,335.096 29.843,335.587 31.554 C 335.961 32.858,336.159 32.804,330.907 32.825 C 328.875 32.833,327.232 32.966,327.254 33.120 C 327.276 33.274,327.273 33.977,327.247 34.683 L 327.200 35.966 324.100 36.083 L 321.000 36.200 320.877 37.684 L 320.754 39.167 317.677 39.284 L 314.600 39.400 314.477 40.886 L 314.353 42.371 311.340 42.355 C 308.015 42.338,307.984 42.349,307.893 43.555 C 307.858 44.020,307.677 44.400,307.491 44.400 C 307.305 44.400,307.236 44.535,307.338 44.700 C 307.541 45.028,306.407 45.167,303.551 45.166 C 302.037 45.165,301.702 45.295,301.705 45.883 C 301.723 48.837,301.898 48.690,298.600 48.488 L 295.600 48.304 295.600 49.935 L 295.600 51.565 292.700 51.682 L 289.800 51.800 289.676 53.300 L 289.552 54.800 286.676 54.847 C 285.094 54.873,283.701 54.885,283.580 54.874 C 283.459 54.863,283.316 55.510,283.262 56.312 C 283.142 58.090,283.485 57.872,280.400 58.136 C 278.970 58.259,277.734 58.369,277.653 58.380 C 277.573 58.391,277.601 58.760,277.716 59.201 C 277.837 59.664,277.761 59.900,277.536 59.760 C 277.322 59.628,277.204 59.853,277.273 60.260 C 277.381 60.889,277.130 61.000,275.600 61.000 L 273.800 61.000 273.800 62.600 L 273.800 64.200 270.696 64.087 C 268.988 64.025,267.614 64.115,267.643 64.287 C 267.983 66.343,267.571 67.200,266.243 67.200 C 264.809 67.200,264.400 67.696,264.400 69.433 C 264.400 70.442,264.282 70.465,258.800 70.515 C 258.366 70.519,258.209 70.947,258.231 72.060 C 258.262 73.584,258.246 73.600,256.731 73.600 C 255.378 73.600,255.200 73.713,255.200 74.567 C 255.200 76.304,254.791 76.800,253.357 76.800 C 252.611 76.800,251.978 76.980,251.950 77.200 C 251.923 77.420,251.855 77.780,251.800 78.000 C 251.745 78.220,251.678 78.760,251.650 79.200 C 251.582 80.283,248.956 80.371,248.676 79.300 C 248.517 78.691,248.487 78.686,248.446 79.263 C 248.414 79.721,248.153 79.861,247.598 79.715 C 246.579 79.449,245.572 80.263,245.892 81.095 C 246.054 81.517,245.978 81.634,245.668 81.442 C 245.369 81.257,245.200 81.449,245.200 81.976 C 245.200 82.517,244.925 82.817,244.400 82.850 C 243.960 82.877,243.375 82.923,243.100 82.950 C 242.823 82.978,242.545 83.669,242.476 84.500 C 242.354 85.976,241.715 86.318,239.557 86.066 C 239.423 86.051,239.365 86.500,239.427 87.065 C 239.600 88.640,239.220 89.200,237.981 89.200 C 236.678 89.200,236.532 89.360,236.340 91.000 C 236.220 92.030,236.002 92.228,234.800 92.400 C 233.518 92.583,233.390 92.724,233.277 94.077 C 233.162 95.465,233.065 95.562,231.677 95.677 C 230.289 95.793,230.193 95.889,230.077 97.277 C 229.962 98.665,229.865 98.762,228.477 98.877 C 227.133 98.989,226.989 99.117,226.875 100.300 C 226.751 101.583,226.721 101.600,224.675 101.606 C 222.109 101.614,221.603 101.919,221.489 103.529 L 221.400 104.798 217.743 104.799 C 214.101 104.800,213.076 104.372,213.822 103.164 C 213.946 102.964,213.846 102.800,213.600 102.800 C 213.354 102.800,213.245 102.650,213.359 102.467 C 213.472 102.283,213.348 102.110,213.082 102.081 C 212.532 102.022,204.337 101.659,202.751 101.623 C 201.842 101.603,201.668 101.386,201.446 100.000 C 201.205 98.488,201.114 98.400,199.795 98.400 C 198.469 98.400,198.400 98.331,198.400 97.008 C 198.400 95.617,197.117 94.709,196.068 95.358 C 195.602 95.646,194.938 94.811,194.989 94.000 C 195.049 93.058,193.588 92.430,191.300 92.414 C 189.449 92.402,189.200 92.302,189.200 91.574 C 189.200 89.998,188.456 89.200,186.986 89.200 C 185.677 89.200,185.600 89.125,185.600 87.843 C 185.600 86.469,185.095 86.000,183.617 86.000 C 182.938 86.000,182.148 83.931,182.568 83.252 C 182.659 83.105,182.028 83.052,181.166 83.135 C 179.747 83.270,179.599 83.196,179.595 82.342 C 179.582 80.201,179.176 79.600,177.741 79.600 C 176.789 79.600,176.309 79.388,176.159 78.900 C 175.545 76.915,175.559 76.922,172.124 76.846 L 170.048 76.800 169.924 75.300 C 169.810 73.921,169.687 73.784,168.400 73.600 C 167.047 73.407,166.962 73.300,166.663 71.400 C 166.569 70.800,165.264 70.484,162.700 70.440 L 160.400 70.400 160.400 68.800 C 160.400 67.920,160.265 67.221,160.100 67.247 C 159.935 67.273,158.596 67.273,157.124 67.247 L 154.448 67.200 154.324 65.700 C 154.218 64.416,154.056 64.193,153.200 64.151 C 150.977 64.041,150.676 63.990,150.901 63.766 C 151.370 63.297,150.320 61.145,149.732 61.371 C 149.413 61.493,149.267 61.415,149.403 61.195 C 149.537 60.978,149.356 60.800,149.000 60.800 C 148.644 60.800,148.436 60.935,148.538 61.100 C 148.640 61.265,147.931 61.337,146.962 61.260 C 145.570 61.149,145.190 60.960,145.150 60.360 C 145.123 59.942,145.055 59.420,145.000 59.200 C 144.945 58.980,144.878 58.620,144.850 58.400 C 144.822 58.180,144.172 58.000,143.405 58.000 C 142.086 58.000,141.995 57.912,141.754 56.400 L 141.498 54.800 138.793 54.800 L 136.089 54.800 135.834 53.439 C 135.568 52.022,135.002 51.600,133.367 51.600 C 132.504 51.600,132.400 51.426,132.400 49.987 L 132.400 48.374 129.300 48.487 L 126.200 48.600 126.079 46.941 L 125.958 45.282 122.879 45.341 L 119.800 45.400 119.676 43.900 L 119.552 42.400 116.276 42.397 C 113.206 42.394,112.972 42.333,112.553 41.430 C 112.173 40.609,112.203 40.494,112.753 40.658 C 113.109 40.763,112.770 40.486,112.000 40.041 C 110.896 39.404,109.861 39.230,107.100 39.217 L 103.600 39.200 103.600 38.080 C 103.600 36.245,103.004 36.000,98.547 36.000 C 94.367 36.000,93.274 35.498,94.198 34.004 C 94.335 33.782,94.246 33.600,94.000 33.600 C 93.754 33.600,93.681 33.392,93.838 33.138 C 94.052 32.792,92.669 32.740,88.351 32.930 C 82.506 33.188,79.675 32.849,79.708 31.894 C 79.718 31.622,79.698 30.997,79.663 30.505 L 79.600 29.610 67.188 29.705 L 54.776 29.800 54.888 34.200 L 55.000 38.600 56.500 38.724 C 57.325 38.792,58.021 39.062,58.046 39.324 C 58.072 39.586,58.134 39.980,58.185 40.200 C 58.236 40.420,58.306 40.915,58.339 41.300 C 58.391 41.898,58.832 42.000,61.376 42.000 L 64.352 42.000 64.476 43.500 L 64.600 45.000 67.500 45.118 C 70.253 45.229,70.400 45.283,70.400 46.185 C 70.400 47.909,70.812 48.400,72.259 48.400 C 73.615 48.400,73.631 48.421,73.536 50.031 C 73.450 51.498,73.347 51.645,72.520 51.487 C 72.014 51.390,71.600 51.477,71.600 51.679 C 71.600 51.882,71.442 51.950,71.249 51.830 C 70.420 51.318,69.907 84.974,70.731 85.798 C 70.879 85.946,71.003 86.187,71.007 86.333 C 71.032 87.340,72.563 88.333,73.082 87.679 C 73.518 87.131,73.611 87.116,73.564 87.600 C 73.249 90.838,73.676 104.049,74.100 104.179 C 74.375 104.264,75.095 104.442,75.700 104.574 C 76.675 104.788,76.800 104.996,76.800 106.408 L 76.800 108.000 74.000 108.000 C 71.025 108.000,71.158 107.901,71.041 110.200 C 71.003 110.933,70.743 110.995,67.940 110.935 L 64.880 110.871 64.613 112.650 L 64.347 114.429 61.373 114.159 L 58.400 113.890 58.353 115.245 C 58.327 115.990,58.327 116.735,58.353 116.900 C 58.379 117.065,57.245 117.200,55.833 117.200 C 52.413 117.200,52.000 117.399,52.000 119.043 L 52.000 120.400 49.300 120.447 C 47.815 120.473,46.486 120.480,46.347 120.463 C 45.998 120.419,45.552 122.798,45.825 123.241 C 45.947 123.438,45.382 123.600,44.570 123.600 C 41.841 123.600,39.979 124.404,39.721 125.696 C 39.511 126.744,39.357 126.839,38.045 126.725 C 36.605 126.600,36.600 126.606,36.476 128.330 L 36.351 130.060 33.398 129.847 L 30.444 129.634 30.322 131.317 C 30.201 132.989,30.189 133.001,28.500 133.123 C 26.853 133.242,26.800 133.289,26.800 134.623 L 26.800 136.000 23.800 136.000 L 20.800 136.000 20.753 137.300 C 20.727 138.015,20.727 138.735,20.753 138.900 C 20.791 139.145,19.203 139.307,18.145 139.166 C 17.685 139.104,17.212 140.178,17.206 141.300 C 17.199 142.496,14.710 143.004,14.265 141.900 C 14.104 141.500,14.057 141.500,14.032 141.900 C 14.014 142.175,13.578 142.400,13.062 142.400 C 12.000 142.400,10.800 143.530,10.800 144.531 C 10.800 145.008,10.455 145.200,9.600 145.200 C 8.635 145.200,8.392 145.376,8.357 146.100 C 8.239 148.613,8.249 148.596,6.714 148.723 C 5.379 148.834,5.202 148.983,4.976 150.186 C 4.764 151.317,4.516 151.564,3.378 151.778 C 2.229 151.993,1.992 152.235,1.771 153.415 C 1.583 154.414,1.301 154.800,0.755 154.800 C 0.057 154.800,0.000 155.161,0.000 159.600 C 0.000 164.133,0.044 164.400,0.800 164.400 C 1.916 164.400,1.820 165.589,0.700 165.646 C -0.081 165.687,-0.098 165.719,0.572 165.890 C 0.996 165.998,1.603 166.346,1.920 166.662 C 3.160 167.902,11.420 167.013,10.500 165.739 C 9.608 164.503,10.507 164.089,14.424 163.931 C 18.677 163.761,19.181 163.525,19.194 161.700 C 19.200 160.834,19.335 160.800,22.800 160.800 C 24.780 160.800,26.379 160.665,26.353 160.500 C 26.327 160.335,26.327 159.705,26.353 159.100 L 26.400 158.000 30.757 158.000 C 35.438 158.000,35.600 157.925,35.600 155.767 C 35.600 154.810,35.640 154.800,39.524 154.800 C 43.889 154.800,44.680 154.475,44.875 152.600 L 45.000 151.400 49.312 151.539 C 53.814 151.684,55.022 151.343,54.618 150.044 C 54.177 148.624,54.884 148.436,60.900 148.379 C 64.131 148.348,66.759 148.205,66.740 148.062 C 66.721 147.918,66.727 147.215,66.753 146.500 L 66.800 145.200 72.300 145.194 C 77.321 145.188,78.928 144.957,78.834 144.255 C 78.535 142.023,78.572 142.000,82.400 142.000 L 86.000 142.000 86.000 145.967 C 86.000 150.869,86.116 151.200,87.830 151.200 L 89.175 151.200 89.287 155.900 L 89.400 160.600 90.900 160.724 C 93.183 160.913,93.283 164.400,91.005 164.400 C 89.686 164.400,89.595 164.488,89.354 166.000 C 89.116 167.488,89.006 167.600,87.792 167.600 C 86.404 167.600,86.000 168.112,86.000 169.875 C 86.000 170.806,85.879 170.873,84.451 170.736 L 82.901 170.589 83.103 172.094 C 83.314 173.667,83.255 173.715,81.100 173.707 C 80.715 173.705,80.400 173.871,80.400 174.076 C 80.400 174.280,80.227 174.340,80.015 174.209 C 79.782 174.065,79.637 175.000,79.649 176.568 C 79.673 179.657,79.508 180.000,77.999 180.000 C 76.929 180.000,76.837 180.122,76.723 181.697 C 76.627 183.025,76.426 183.425,75.800 183.538 C 74.321 183.805,73.730 184.720,73.654 186.858 C 73.563 189.440,73.453 189.600,71.776 189.600 L 70.400 189.600 70.400 192.576 L 70.400 195.552 68.900 195.676 C 67.449 195.796,67.396 195.855,67.279 197.468 C 67.186 198.734,66.913 199.296,66.144 199.800 C 65.587 200.165,65.229 200.562,65.348 200.682 C 65.468 200.801,65.222 201.192,64.802 201.550 C 64.216 202.049,64.007 202.852,63.903 205.000 C 63.783 207.450,63.668 207.805,62.983 207.841 C 60.755 207.957,60.800 207.913,60.800 209.963 C 60.800 211.742,60.724 211.905,59.983 211.711 C 59.534 211.594,59.195 211.656,59.230 211.849 C 59.389 212.715,59.159 212.897,58.700 212.269 C 58.249 211.653,58.200 211.681,58.200 212.554 C 58.200 213.087,58.380 213.424,58.600 213.303 C 58.820 213.182,58.775 213.325,58.500 213.621 C 58.189 213.957,58.000 215.338,58.000 217.280 C 58.000 220.313,57.973 220.400,57.033 220.400 C 54.985 220.400,54.800 220.686,54.800 223.843 L 54.800 226.800 53.427 226.800 C 51.777 226.800,51.474 227.457,51.551 230.875 L 51.604 233.200 49.973 233.200 L 48.342 233.200 48.443 239.155 L 48.543 245.109 52.959 245.175 C 55.387 245.211,57.448 245.315,57.539 245.406 C 57.631 245.497,58.087 245.369,58.553 245.120 C 59.340 244.701,59.358 244.720,58.800 245.396 C 58.470 245.796,58.178 246.455,58.150 246.861 C 58.003 249.035,58.148 248.929,55.667 248.670 C 54.083 248.505,53.165 248.583,52.808 248.913 C 52.390 249.301,52.347 249.287,52.597 248.848 C 52.811 248.472,52.734 248.355,52.356 248.481 C 51.739 248.687,51.496 254.688,52.090 255.056 C 52.268 255.165,52.329 255.391,52.226 255.558 C 52.123 255.724,52.760 256.457,53.641 257.185 C 54.522 257.914,55.158 258.733,55.053 259.005 C 54.949 259.278,55.344 259.735,55.932 260.022 C 57.326 260.702,57.276 260.692,59.600 260.750 L 61.600 260.800 61.606 262.500 C 61.611 263.745,61.716 264.039,62.000 263.600 C 62.258 263.200,62.390 263.167,62.394 263.500 C 62.398 263.848,63.190 264.000,65.000 264.000 C 67.361 264.000,67.600 264.076,67.600 264.826 C 67.600 266.774,68.249 267.200,71.214 267.200 L 74.000 267.200 74.000 268.592 C 74.000 270.260,74.872 270.620,77.994 270.240 C 80.372 269.950,80.795 270.768,78.800 271.800 C 78.140 272.141,77.600 272.686,77.600 273.010 C 77.600 273.494,76.813 273.600,73.224 273.600 C 68.571 273.600,68.224 273.737,68.184 275.600 C 68.162 276.575,68.088 276.600,65.181 276.600 C 61.631 276.600,61.200 276.820,61.200 278.627 L 61.200 280.006 57.700 279.805 C 55.714 279.691,54.429 279.752,54.730 279.944 C 55.048 280.148,55.208 280.826,55.130 281.642 L 55.000 283.000 52.800 283.007 C 51.590 283.012,50.219 283.230,49.753 283.493 C 49.287 283.757,48.792 283.858,48.653 283.719 C 48.514 283.580,48.400 283.677,48.400 283.933 C 48.400 284.190,48.616 284.400,48.880 284.400 C 49.253 284.400,49.253 284.507,48.880 284.880 C 48.235 285.525,48.250 290.479,48.900 291.179 C 49.300 291.610,49.300 291.661,48.900 291.435 C 48.625 291.280,48.400 291.341,48.400 291.572 C 48.400 291.802,48.715 291.964,49.100 291.932 C 51.293 291.748,52.000 292.000,52.000 292.967 C 52.000 295.157,52.104 295.200,57.471 295.200 L 62.457 295.200 62.335 296.135 C 62.096 297.959,63.146 298.400,67.729 298.400 C 71.896 298.400,72.952 298.783,72.190 300.016 C 71.937 300.425,73.324 301.222,75.000 301.633 C 76.153 301.915,76.164 301.938,75.280 302.215 C 74.693 302.399,74.276 302.921,74.130 303.652 C 73.900 304.798,73.625 304.913,71.118 304.908 C 70.743 304.908,70.449 305.018,70.465 305.154 C 70.865 308.495,70.335 311.200,69.280 311.200 C 67.532 311.200,67.200 311.851,67.200 315.280 C 67.200 317.075,67.032 318.400,66.803 318.400 C 65.223 318.400,63.959 320.971,64.079 323.940 L 64.200 326.918 62.481 327.499 L 60.762 328.079 61.018 332.640 L 61.273 337.200 60.060 337.200 C 58.461 337.200,58.298 337.554,58.236 341.152 C 58.167 345.141,58.103 345.097,64.090 345.174 C 69.380 345.243,69.585 345.177,69.784 343.364 C 69.927 342.065,69.861 342.101,72.400 341.954 C 74.972 341.805,75.600 341.451,75.600 340.151 C 75.600 339.239,75.722 339.198,78.600 339.150 C 80.250 339.123,81.825 339.078,82.100 339.050 C 82.377 339.022,82.655 338.331,82.724 337.500 L 82.848 336.000 86.424 335.950 C 88.391 335.923,90.180 335.855,90.400 335.800 C 90.620 335.745,90.980 335.678,91.200 335.650 C 91.420 335.623,91.600 334.970,91.600 334.200 L 91.600 332.800 93.600 332.800 L 95.600 332.800 95.600 334.357 C 95.600 336.004,95.167 336.400,93.367 336.400 C 92.430 336.400,92.400 336.493,92.400 339.406 L 92.400 342.413 91.289 342.328 C 89.259 342.173,89.200 342.370,89.200 349.269 L 89.200 355.691 87.979 355.512 C 86.236 355.256,86.089 355.781,86.022 362.509 C 85.961 368.649,86.553 372.800,87.491 372.800 C 87.771 372.800,88.000 372.955,88.000 373.145 C 88.000 373.654,90.119 373.489,90.700 372.934 C 90.975 372.672,91.200 371.998,91.200 371.436 C 91.200 370.399,91.601 370.181,94.000 369.912 C 94.842 369.818,95.020 369.564,95.124 368.300 C 95.245 366.842,95.292 366.800,96.824 366.800 C 98.358 366.800,98.400 366.763,98.400 365.400 L 98.400 364.000 100.800 364.000 C 102.120 364.000,103.315 364.015,103.455 364.034 C 103.912 364.095,104.388 363.025,104.394 361.924 C 104.399 360.971,104.571 360.834,105.900 360.724 C 107.279 360.610,107.416 360.487,107.600 359.200 L 107.800 357.800 110.621 357.858 L 113.442 357.916 113.539 356.473 C 113.658 354.705,113.460 354.868,115.701 354.699 C 116.732 354.622,117.699 354.434,117.851 354.282 C 118.002 354.131,118.368 354.207,118.663 354.452 C 119.075 354.794,119.200 354.747,119.200 354.249 C 119.200 353.892,119.355 353.600,119.545 353.600 C 119.734 353.600,119.803 353.150,119.698 352.600 C 119.520 351.668,119.616 351.600,121.104 351.600 C 121.983 351.600,122.889 351.375,123.117 351.100 C 123.563 350.563,123.600 350.418,123.600 349.214 C 123.600 348.491,123.930 348.419,127.700 348.314 L 131.800 348.200 132.171 346.700 L 132.541 345.200 136.591 345.200 C 141.002 345.200,141.600 344.952,141.600 343.120 L 141.600 342.000 147.000 342.000 C 152.841 342.000,152.461 341.850,152.576 344.200 C 152.621 345.116,152.353 345.080,159.600 345.150 L 164.800 345.200 164.806 346.300 C 164.812 347.422,165.285 348.496,165.745 348.434 C 165.885 348.415,167.821 348.400,170.047 348.400 L 174.093 348.400 173.889 349.471 C 173.540 351.292,174.191 351.509,180.199 351.577 C 185.767 351.640,186.598 351.756,186.194 352.409 C 186.074 352.604,186.088 353.212,186.226 353.761 L 186.477 354.760 214.138 354.661 C 242.405 354.559,243.650 354.496,243.393 353.161 C 243.312 352.743,243.426 352.400,243.647 352.400 C 243.867 352.400,243.936 352.220,243.800 352.000 C 243.639 351.739,246.445 351.578,251.876 351.537 C 263.523 351.450,263.100 351.516,263.100 349.791 C 263.100 348.358,262.678 348.435,270.902 348.383 C 279.001 348.332,279.196 348.271,278.852 345.900 C 278.783 345.427,279.017 345.200,279.575 345.200 C 280.246 345.200,280.400 345.453,280.400 346.553 C 280.400 348.123,280.957 348.386,284.300 348.395 L 286.400 348.400 286.400 349.800 C 286.400 350.570,286.580 351.223,286.800 351.250 C 287.020 351.278,287.380 351.345,287.600 351.400 C 287.820 351.455,288.990 351.523,290.200 351.550 C 292.361 351.599,292.400 351.621,292.400 352.786 C 292.400 354.060,293.290 354.800,294.820 354.800 C 295.507 354.800,295.658 354.992,295.530 355.700 C 295.235 357.324,296.783 358.095,300.500 358.176 C 301.440 358.197,301.607 358.375,301.645 359.400 C 301.798 363.463,302.050 363.981,303.875 363.994 C 304.567 363.999,304.775 364.270,304.875 365.300 C 304.989 366.483,305.133 366.611,306.477 366.723 C 307.865 366.838,307.962 366.935,308.077 368.323 C 308.190 369.676,308.318 369.817,309.600 370.000 C 310.882 370.183,311.010 370.324,311.123 371.677 C 311.238 373.065,311.335 373.162,312.723 373.277 C 314.180 373.398,315.442 376.356,314.330 377.044 C 314.148 377.156,314.021 377.552,314.046 377.924 C 314.089 378.544,314.108 378.543,314.274 377.910 C 314.418 377.358,314.562 377.318,314.985 377.710 C 315.277 377.979,315.434 378.335,315.334 378.500 C 315.235 378.665,315.411 378.800,315.727 378.800 C 316.588 378.800,317.287 379.842,317.343 381.208 C 317.387 382.289,317.556 382.448,318.896 382.662 C 320.290 382.885,320.400 383.001,320.400 384.251 C 320.400 385.639,320.532 385.716,322.900 385.707 C 323.393 385.705,323.615 386.043,323.650 386.852 C 323.678 387.483,323.723 388.225,323.750 388.500 C 323.836 389.347,334.842 388.949,335.526 388.073 C 336.112 387.324,336.156 361.365,335.573 360.600 C 335.405 360.380,335.266 360.020,335.264 359.800 C 335.262 359.580,334.707 359.239,334.030 359.042 L 332.800 358.684 332.800 349.571 C 332.800 341.819,332.706 340.363,332.171 339.829 C 331.600 339.257,331.860 339.200,335.033 339.200 L 338.524 339.200 337.773 340.100 C 337.359 340.595,337.277 340.775,337.591 340.500 C 338.430 339.763,338.985 339.892,338.349 340.677 C 338.047 341.049,338.005 341.231,338.255 341.081 C 338.505 340.931,338.932 341.077,339.204 341.404 C 339.572 341.849,340.586 342.000,343.194 342.000 L 346.690 342.000 346.571 343.082 C 346.417 344.484,346.786 345.038,347.900 345.078 C 348.395 345.096,349.572 345.131,350.515 345.156 C 352.146 345.198,352.235 345.262,352.327 346.479 C 352.469 348.342,352.335 348.273,355.976 348.350 L 358.352 348.400 358.476 349.900 L 358.600 351.400 361.354 351.400 C 364.296 351.400,364.785 351.767,364.612 353.844 C 364.544 354.667,364.689 354.689,370.274 354.700 C 377.121 354.714,376.473 355.604,376.314 346.400 L 376.200 339.800 374.900 339.675 C 373.935 339.582,373.594 339.350,373.575 338.775 C 373.561 338.349,373.540 336.965,373.528 335.700 L 373.506 333.400 371.853 333.200 L 370.200 333.000 370.333 330.562 C 370.482 327.835,369.887 326.800,368.171 326.800 C 367.259 326.800,367.198 326.661,367.172 324.500 C 367.136 321.569,366.875 321.032,365.400 320.861 C 363.909 320.688,364.081 321.033,363.966 317.999 C 363.861 315.217,363.604 314.816,361.923 314.806 C 360.943 314.801,360.835 314.647,360.723 313.100 C 360.604 311.455,360.552 311.396,359.123 311.277 C 357.735 311.162,357.638 311.065,357.523 309.677 C 357.407 308.285,357.314 308.193,355.900 308.076 C 354.562 307.965,354.400 307.833,354.400 306.856 C 354.400 306.253,354.182 305.542,353.915 305.275 C 353.534 304.894,356.356 304.812,366.977 304.895 C 378.655 304.985,380.537 305.083,380.620 305.600 C 381.015 308.070,380.660 307.987,390.900 307.994 L 400.000 308.000 400.000 301.800 C 400.000 295.867,399.966 295.600,399.200 295.600 C 398.621 295.600,398.400 295.333,398.400 294.633 C 398.400 292.896,397.991 292.400,396.557 292.400 C 395.279 292.400,395.200 292.320,395.200 291.035 C 395.200 289.755,395.101 289.654,393.600 289.400 C 392.100 289.147,392.000 289.045,392.000 287.770 C 392.000 286.492,391.903 286.394,390.400 286.154 C 388.907 285.915,388.800 285.809,388.800 284.573 C 388.800 283.331,388.706 283.241,387.300 283.124 C 385.881 283.007,385.793 282.919,385.676 281.500 C 385.558 280.081,385.477 280.000,384.176 280.000 C 382.987 280.000,382.800 279.868,382.800 279.033 C 382.800 277.321,382.386 276.800,381.028 276.800 C 379.873 276.800,379.703 276.646,379.371 275.300 C 379.032 273.931,378.860 273.783,377.400 273.600 C 376.160 273.445,375.800 273.228,375.800 272.634 C 375.800 271.571,373.741 270.464,371.700 270.429 C 370.092 270.402,370.000 270.336,370.000 269.224 C 370.000 267.593,369.575 267.427,364.800 267.200 C 360.890 267.014,360.592 266.941,360.478 266.146 C 360.399 265.594,359.834 265.077,358.878 264.685 C 357.498 264.118,357.471 264.075,358.467 264.039 C 360.333 263.971,360.800 263.599,360.800 262.181 C 360.800 260.930,360.892 260.841,362.300 260.724 C 363.719 260.607,363.807 260.519,363.924 259.100 C 364.042 257.681,364.123 257.600,365.424 257.600 C 366.181 257.600,366.823 257.465,366.852 257.300 C 366.881 257.135,366.931 256.460,366.964 255.800 C 367.018 254.717,367.169 254.588,368.512 254.476 C 369.654 254.381,370.012 254.171,370.050 253.576 C 370.078 253.149,370.123 252.582,370.150 252.315 C 370.178 252.048,370.875 251.670,371.700 251.475 C 373.162 251.129,373.451 250.650,373.236 248.925 C 373.201 248.650,373.813 248.397,374.688 248.325 C 376.116 248.207,376.207 248.118,376.323 246.723 C 376.438 245.335,376.535 245.238,377.923 245.123 C 379.315 245.007,379.407 244.914,379.524 243.500 C 379.635 242.162,379.767 242.000,380.744 242.000 C 382.149 242.000,382.800 241.334,382.800 239.896 C 382.800 238.853,382.905 238.768,383.982 238.938 C 385.736 239.215,385.890 238.721,385.974 232.553 C 386.051 226.960,386.043 226.905,385.126 226.659 C 383.622 226.256,367.671 226.361,367.415 226.775 C 367.288 226.982,366.827 227.082,366.392 226.998 C 365.585 226.843,365.536 226.923,365.478 228.500 C 365.426 229.889,364.950 229.990,359.728 229.726 C 353.862 229.429,352.511 229.797,352.322 231.739 L 352.200 233.000 346.894 232.851 C 342.270 232.721,341.618 232.780,341.821 233.311 C 341.949 233.645,341.862 234.038,341.627 234.183 C 341.392 234.328,341.200 234.797,341.200 235.224 C 341.200 235.913,340.907 236.000,338.600 236.000 L 336.000 236.000 336.000 234.000 C 336.000 231.883,336.137 231.782,338.800 231.941 C 339.206 231.965,339.238 231.905,338.898 231.754 C 338.621 231.632,338.526 231.322,338.687 231.066 C 339.061 230.468,339.067 230.413,339.139 226.500 L 339.200 223.200 340.600 223.200 L 342.000 223.200 342.000 220.224 L 342.000 217.248 343.500 217.124 C 344.918 217.007,345.007 216.918,345.124 215.502 C 345.253 213.946,346.383 213.201,347.794 213.742 C 348.122 213.868,348.371 213.843,348.348 213.686 C 348.324 213.529,348.327 212.106,348.353 210.524 L 348.400 207.648 349.900 207.524 L 351.400 207.400 351.418 204.400 L 351.436 201.400 353.018 201.200 C 353.888 201.090,354.623 200.775,354.650 200.500 C 354.678 200.225,354.723 198.830,354.750 197.400 C 354.778 195.970,354.935 194.838,355.100 194.885 C 355.265 194.931,355.999 194.843,356.732 194.688 L 358.064 194.407 357.984 192.104 C 357.858 188.487,357.866 188.464,359.300 188.325 L 360.600 188.200 360.718 185.300 C 360.814 182.908,360.955 182.389,361.518 182.339 C 361.893 182.306,362.470 182.256,362.800 182.230 C 363.130 182.203,363.350 181.884,363.289 181.521 C 363.229 181.157,363.364 180.746,363.589 180.607 C 363.821 180.464,364.000 178.791,364.000 176.776 L 364.000 173.200 365.120 173.200 C 366.870 173.200,367.200 172.550,367.200 169.102 C 367.200 166.824,367.337 165.983,367.700 166.030 C 369.037 166.203,370.567 165.967,370.084 165.661 C 369.696 165.414,369.671 165.064,369.984 164.241 C 370.213 163.640,370.400 161.810,370.400 160.174 C 370.400 156.964,370.358 157.012,373.065 157.087 C 373.390 157.096,373.531 155.821,373.531 152.850 C 373.532 147.228,373.541 147.116,373.970 147.381 C 375.747 148.480,376.376 146.847,376.490 140.841 L 376.600 135.000 377.799 134.864 C 379.554 134.665,379.587 134.500,379.594 126.055 L 379.600 118.309 380.797 118.485 C 381.455 118.581,381.914 118.580,381.816 118.483 C 381.718 118.385,381.900 118.043,382.219 117.724 C 382.712 117.231,382.800 114.049,382.800 96.771 L 382.800 76.400 384.148 76.400 C 385.861 76.400,385.888 76.190,385.948 62.600 C 386.001 50.495,385.860 49.434,384.196 49.414 L 383.000 49.400 382.893 38.619 C 382.779 27.099,382.802 27.218,380.723 27.206 C 379.743 27.201,379.635 27.047,379.523 25.500 L 379.400 23.800 376.200 23.600 C 373.257 23.416,372.996 23.330,372.956 22.527 C 372.865 20.727,369.706 19.740,368.424 21.112 M243.118 175.934 C 243.713 176.409,245.018 177.233,246.019 177.765 C 248.756 179.219,256.800 187.481,256.800 188.837 C 256.800 189.021,257.307 189.763,257.927 190.486 C 258.547 191.209,259.296 192.430,259.591 193.200 C 259.886 193.970,260.559 195.186,261.086 195.903 C 261.614 196.619,262.382 198.186,262.794 199.383 C 263.206 200.581,263.986 202.335,264.528 203.281 C 265.069 204.226,265.821 206.426,266.199 208.170 C 266.577 209.913,267.226 211.993,267.642 212.791 C 268.070 213.611,268.654 216.177,268.985 218.688 C 269.308 221.133,269.941 224.543,270.393 226.267 C 272.247 233.338,272.344 246.426,270.597 253.800 C 270.076 256.000,269.452 258.970,269.212 260.400 C 268.448 264.936,268.348 265.231,267.100 266.653 C 266.426 267.420,265.139 268.417,264.238 268.869 C 263.337 269.321,262.240 270.005,261.800 270.390 C 261.092 271.008,258.755 272.000,258.005 272.000 C 256.706 272.000,256.532 268.333,257.644 264.392 C 260.511 254.229,260.880 227.604,258.241 221.276 C 257.719 220.024,257.162 218.395,257.004 217.655 C 255.894 212.461,250.115 210.793,246.925 214.746 C 246.102 215.766,245.209 216.737,244.941 216.905 C 244.673 217.072,244.075 218.221,243.613 219.458 C 243.150 220.694,242.331 222.459,241.792 223.378 C 241.253 224.298,240.532 226.526,240.189 228.330 C 239.847 230.134,239.228 232.192,238.814 232.905 C 236.383 237.085,236.033 270.559,238.372 275.146 C 241.333 280.950,229.537 283.908,220.573 279.610 C 218.727 278.724,216.991 278.000,216.716 278.000 C 216.441 278.000,215.217 277.383,213.996 276.630 C 212.775 275.876,211.241 275.126,210.588 274.964 C 209.934 274.801,208.770 274.189,208.000 273.604 C 207.230 273.018,205.944 272.064,205.143 271.482 C 202.773 269.762,201.869 258.455,202.770 241.800 C 203.496 228.370,203.716 226.308,204.776 223.000 C 205.199 221.680,205.848 218.710,206.218 216.400 C 206.588 214.090,207.323 211.163,207.852 209.896 C 208.381 208.629,209.092 206.379,209.434 204.896 C 209.775 203.413,210.467 201.480,210.972 200.600 C 211.477 199.720,212.196 198.065,212.570 196.923 C 212.944 195.780,213.574 194.430,213.971 193.923 C 214.368 193.415,215.264 191.920,215.962 190.600 C 218.010 186.723,225.829 178.000,227.255 178.000 C 227.513 178.000,228.348 177.525,229.109 176.944 C 232.178 174.603,240.682 173.990,243.118 175.934 M169.497 178.947 C 170.685 179.561,172.000 182.807,172.000 185.125 C 172.000 185.605,172.654 186.722,173.453 187.606 L 174.906 189.215 174.953 227.380 L 175.000 265.544 173.800 266.800 C 173.140 267.491,171.745 268.522,170.700 269.092 C 169.655 269.661,168.800 270.288,168.800 270.484 C 168.800 271.925,161.507 272.485,156.895 271.398 C 154.085 270.735,151.393 271.278,150.600 272.667 C 149.328 274.897,145.791 277.583,144.115 277.591 C 142.078 277.602,139.242 274.091,137.012 268.800 C 136.688 268.030,136.012 266.893,135.511 266.272 C 134.739 265.317,134.568 264.523,134.387 261.072 C 134.196 257.406,134.056 256.823,132.987 255.229 L 131.800 253.458 131.804 244.629 L 131.809 235.800 132.981 233.600 C 133.924 231.831,134.168 230.844,134.226 228.563 C 134.271 226.836,134.536 225.349,134.905 224.763 C 135.238 224.233,135.635 223.088,135.788 222.219 C 135.942 221.349,136.412 219.961,136.833 219.135 C 137.255 218.308,137.600 216.932,137.600 216.076 C 137.600 214.119,138.264 212.156,139.465 210.565 C 139.977 209.885,140.577 208.377,140.798 207.213 C 141.018 206.049,141.559 204.514,141.999 203.802 C 142.439 203.090,143.160 201.376,143.602 199.994 C 144.658 196.689,147.516 191.845,148.900 191.015 C 149.505 190.652,150.000 190.127,150.000 189.849 C 150.000 189.571,150.602 188.637,151.338 187.772 C 152.074 186.907,152.892 185.792,153.155 185.294 C 153.419 184.796,154.326 183.951,155.172 183.418 C 156.018 182.884,157.585 181.619,158.655 180.607 C 159.725 179.595,160.960 178.690,161.400 178.596 C 163.510 178.143,164.352 178.074,166.255 178.198 C 167.385 178.272,168.844 178.609,169.497 178.947 M105.076 208.000 C 105.214 208.330,105.295 208.802,105.257 209.048 C 105.220 209.295,105.506 209.495,105.894 209.494 C 108.130 209.483,108.000 209.072,108.000 216.176 L 108.000 222.752 109.500 222.876 L 111.000 223.000 110.918 231.400 C 110.873 236.020,110.922 239.607,111.028 239.371 C 111.265 238.841,113.690 239.145,114.094 239.755 C 114.901 240.977,114.233 247.272,113.415 246.153 C 113.054 245.659,112.237 245.481,110.166 245.446 L 107.400 245.400 107.200 244.000 L 107.000 242.600 92.491 242.523 C 83.496 242.476,78.070 242.590,78.214 242.823 C 78.342 243.030,78.257 243.200,78.024 243.200 C 77.791 243.200,77.621 243.335,77.647 243.500 C 77.673 243.665,77.673 244.213,77.647 244.717 L 77.600 245.634 71.300 245.542 C 62.944 245.419,59.366 245.192,59.963 244.823 C 60.412 244.546,60.690 243.751,60.769 242.524 C 60.786 242.262,61.475 241.992,62.300 241.924 C 63.636 241.814,63.815 241.669,63.936 240.601 C 64.088 239.267,64.575 238.815,65.876 238.806 C 66.598 238.801,66.774 238.537,66.876 237.300 C 66.990 235.921,67.113 235.784,68.400 235.600 C 69.637 235.423,69.815 235.249,69.925 234.100 C 70.047 232.842,71.020 232.445,73.261 232.740 C 73.404 232.758,73.454 232.070,73.371 231.210 C 73.222 229.663,73.236 229.646,74.710 229.524 C 76.117 229.407,76.207 229.317,76.324 227.900 C 76.435 226.562,76.567 226.400,77.544 226.400 C 78.936 226.400,79.600 225.736,79.600 224.344 C 79.600 223.367,79.762 223.235,81.100 223.124 C 82.519 223.007,82.607 222.919,82.724 221.500 C 82.841 220.087,82.927 220.000,84.200 220.000 C 85.473 220.000,85.559 219.913,85.676 218.500 C 85.793 217.081,85.881 216.993,87.300 216.876 C 88.719 216.758,88.800 216.677,88.800 215.376 C 88.800 214.037,88.843 214.000,90.400 214.000 L 92.000 214.000 92.000 212.400 L 92.000 210.800 94.400 210.800 C 95.720 210.800,96.896 210.806,97.014 210.814 C 97.522 210.848,98.400 209.589,98.400 208.829 C 98.400 208.117,99.515 207.650,100.139 208.100 C 100.582 208.420,101.508 207.005,101.414 206.150 C 101.300 205.111,101.536 204.905,103.090 204.682 C 103.579 204.611,104.119 204.412,104.290 204.239 C 104.460 204.066,104.651 204.707,104.713 205.662 C 104.775 206.618,104.938 207.670,105.076 208.000 M62.600 206.400 C 62.281 206.916,62.710 207.609,63.324 207.568 C 63.667 207.546,63.661 207.481,63.300 207.335 C 63.025 207.224,62.800 206.958,62.800 206.743 C 62.800 206.528,63.008 206.481,63.262 206.638 C 63.548 206.815,63.615 206.748,63.438 206.462 C 63.088 205.896,62.919 205.883,62.600 206.400 M254.457 214.743 C 255.615 215.901,256.400 217.045,256.400 217.575 C 256.400 218.064,256.834 219.574,257.365 220.932 C 260.115 227.961,260.042 252.158,257.240 263.000 C 256.684 265.149,256.410 267.473,256.406 270.077 C 256.399 274.510,255.954 275.200,253.100 275.200 C 252.159 275.200,250.553 275.722,248.889 276.568 C 247.403 277.324,245.278 278.043,244.138 278.177 L 242.077 278.417 240.274 276.307 C 237.674 273.264,237.509 271.955,237.509 254.400 C 237.508 238.859,237.740 236.459,239.580 232.927 C 240.027 232.071,240.500 230.477,240.632 229.385 C 240.958 226.699,241.549 224.872,242.633 223.200 C 243.132 222.430,243.733 221.080,243.969 220.200 C 244.205 219.320,245.118 217.804,245.999 216.832 C 246.879 215.860,247.600 214.912,247.600 214.726 C 247.600 214.120,250.171 212.803,251.357 212.801 C 252.209 212.800,253.027 213.313,254.457 214.743 " stroke="none" fill="#0404bb" fill-rule="evenodd"></path><path id="path2" d="M359.747 20.835 C 358.636 21.157,358.028 22.022,358.005 23.312 C 357.988 24.287,367.735 23.400,367.806 22.420 C 367.846 21.882,368.085 21.372,368.339 21.287 C 370.782 20.473,362.500 20.038,359.747 20.835 M372.000 20.767 C 372.000 20.968,372.203 21.201,372.451 21.284 C 372.698 21.366,372.923 21.876,372.951 22.417 C 372.998 23.357,373.139 23.409,376.200 23.600 L 379.400 23.800 379.523 25.500 C 379.630 26.985,379.765 27.200,380.590 27.200 C 381.110 27.200,381.819 27.309,382.167 27.443 C 382.670 27.636,382.800 27.397,382.800 26.276 C 382.800 24.076,382.472 23.600,380.957 23.600 C 379.787 23.600,379.600 23.466,379.600 22.629 C 379.600 20.878,378.650 20.400,375.171 20.400 C 373.427 20.400,372.000 20.565,372.000 20.767 M348.564 24.599 C 348.124 26.354,348.583 26.800,350.830 26.800 C 352.412 26.800,352.837 26.673,352.674 26.249 C 352.558 25.946,352.664 25.496,352.911 25.249 C 353.158 25.002,353.189 24.794,352.980 24.786 C 352.771 24.778,353.050 24.514,353.600 24.200 C 354.537 23.664,354.418 23.627,351.708 23.614 C 348.952 23.601,348.803 23.647,348.564 24.599 M340.900 26.693 C 338.784 26.883,338.236 29.343,340.200 29.836 C 341.857 30.252,343.200 29.717,343.200 28.641 C 343.200 28.115,343.598 27.420,344.100 27.070 L 345.000 26.442 343.800 26.491 C 343.140 26.518,341.835 26.609,340.900 26.693 M57.524 28.149 L 56.447 29.498 58.280 29.749 C 64.230 30.565,70.000 29.895,70.000 28.388 C 70.000 26.908,69.571 26.800,63.667 26.800 L 58.600 26.800 57.524 28.149 M79.701 31.023 C 79.824 32.758,81.586 33.389,85.372 33.055 C 86.707 32.937,88.025 32.831,88.300 32.820 C 88.977 32.793,88.936 31.011,88.244 30.437 C 87.939 30.183,85.869 29.897,83.646 29.801 L 79.602 29.625 79.701 31.023 M332.200 29.935 C 330.659 30.109,330.000 30.670,330.000 31.806 C 330.000 32.914,330.542 33.152,332.610 32.952 C 333.484 32.867,334.582 32.761,335.048 32.716 C 335.770 32.646,335.851 32.474,335.588 31.558 C 335.418 30.965,335.441 30.319,335.640 30.120 C 336.005 29.755,334.509 29.675,332.200 29.935 M52.841 30.700 C 50.816 32.371,51.777 38.800,54.052 38.800 C 54.572 38.800,54.784 39.186,54.876 40.300 C 54.996 41.756,55.050 41.804,56.699 41.923 L 58.398 42.046 58.226 40.723 C 58.131 39.995,58.042 39.276,58.027 39.124 C 58.012 38.972,57.325 38.792,56.500 38.724 L 55.000 38.600 54.886 34.300 C 54.765 29.692,54.540 29.297,52.841 30.700 M93.753 33.277 C 93.643 33.455,93.754 33.600,94.000 33.600 C 94.246 33.600,94.335 33.782,94.198 34.004 C 93.380 35.327,94.425 36.000,97.297 36.000 L 100.139 36.000 99.329 35.100 C 98.884 34.605,98.416 33.906,98.290 33.546 C 98.045 32.848,94.160 32.618,93.753 33.277 M324.100 33.056 C 322.556 33.706,323.569 36.000,325.400 36.000 C 327.183 36.000,327.708 35.169,327.103 33.300 C 326.986 32.938,324.801 32.761,324.100 33.056 M382.892 41.300 L 383.000 49.400 384.200 49.413 C 385.251 49.425,385.431 49.598,385.647 50.813 C 385.783 51.576,385.917 48.870,385.945 44.800 C 385.997 37.232,385.652 34.600,384.492 33.700 C 382.857 32.432,382.778 32.809,382.892 41.300 M103.120 36.480 C 103.384 36.744,103.600 37.464,103.600 38.080 C 103.600 39.200,103.600 39.200,106.400 39.200 C 109.585 39.200,109.563 39.222,108.153 37.373 C 107.180 36.098,106.946 36.000,104.873 36.000 C 103.136 36.000,102.747 36.107,103.120 36.480 M317.328 36.700 C 317.192 37.085,316.716 37.805,316.271 38.300 L 315.461 39.200 318.088 39.200 L 320.716 39.200 320.869 37.600 L 321.021 36.000 319.298 36.000 C 318.018 36.000,317.511 36.180,317.328 36.700 M112.000 40.041 C 112.770 40.486,113.109 40.763,112.753 40.658 C 112.203 40.494,112.173 40.609,112.553 41.430 C 113.289 43.018,117.263 42.898,116.838 41.300 C 116.458 39.878,115.094 39.209,112.600 39.223 L 110.600 39.234 112.000 40.041 M310.964 40.653 C 310.824 41.398,310.436 42.020,310.060 42.104 C 309.697 42.185,310.506 42.285,311.858 42.327 L 314.316 42.402 314.470 40.787 L 314.624 39.172 312.916 39.261 C 311.330 39.343,311.191 39.442,310.964 40.653 M60.950 43.250 C 61.088 43.938,61.200 44.657,61.200 44.850 C 61.200 45.043,61.970 45.200,62.911 45.200 L 64.621 45.200 64.469 43.600 L 64.316 42.000 62.508 42.000 L 60.700 42.000 60.950 43.250 M119.676 43.900 C 119.811 45.530,123.600 46.638,123.600 45.048 C 123.600 43.232,122.842 42.400,121.186 42.400 L 119.552 42.400 119.676 43.900 M304.800 43.104 C 304.800 43.491,304.395 44.065,303.900 44.379 L 303.000 44.950 304.000 45.212 C 304.550 45.356,305.329 45.309,305.731 45.106 C 306.133 44.904,306.728 44.840,307.052 44.965 C 307.383 45.092,307.535 45.018,307.397 44.795 C 307.263 44.578,307.304 44.400,307.489 44.400 C 307.674 44.400,307.863 43.950,307.908 43.400 C 307.984 42.487,307.853 42.400,306.396 42.400 C 305.139 42.400,304.800 42.550,304.800 43.104 M67.276 46.700 C 67.393 48.119,67.481 48.207,68.900 48.324 C 70.517 48.458,70.481 48.379,70.474 51.800 C 70.473 52.701,70.556 53.004,70.664 52.494 C 70.770 51.996,71.024 51.691,71.229 51.818 C 71.433 51.944,71.600 51.882,71.600 51.679 C 71.600 51.477,72.014 51.390,72.520 51.487 C 73.347 51.645,73.450 51.498,73.536 50.031 C 73.631 48.421,73.615 48.400,72.259 48.400 C 70.808 48.400,70.400 47.910,70.400 46.167 C 70.400 45.303,70.227 45.200,68.776 45.200 L 67.152 45.200 67.276 46.700 M126.075 46.851 L 126.200 48.600 127.900 48.723 C 129.599 48.846,129.600 48.846,129.600 47.447 C 129.600 45.843,129.528 45.773,127.472 45.387 L 125.949 45.101 126.075 46.851 M299.190 45.703 C 298.390 46.354,298.398 48.390,299.200 48.430 C 299.530 48.446,300.205 48.535,300.700 48.627 C 301.429 48.763,301.610 48.605,301.650 47.797 C 301.678 47.249,301.723 46.485,301.750 46.100 C 301.811 45.240,300.086 44.972,299.190 45.703 M132.400 50.000 C 132.400 51.426,132.505 51.600,133.367 51.600 C 135.002 51.600,135.568 52.022,135.834 53.439 C 136.131 55.022,139.206 55.627,139.195 54.100 C 139.180 52.221,138.727 51.600,137.371 51.600 C 136.169 51.600,136.011 51.464,135.781 50.237 C 135.528 48.889,134.840 48.419,133.100 48.405 C 132.549 48.401,132.400 48.741,132.400 50.000 M292.636 48.698 C 291.588 49.745,292.460 51.600,294.000 51.600 C 296.323 51.600,296.549 48.648,294.234 48.531 C 293.485 48.493,292.765 48.568,292.636 48.698 M286.267 51.867 C 285.129 53.004,286.042 54.800,287.758 54.800 L 289.516 54.800 289.669 53.200 L 289.821 51.600 288.177 51.600 C 287.273 51.600,286.413 51.720,286.267 51.867 M141.605 55.528 C 141.621 57.387,142.077 58.000,143.447 58.000 C 144.191 58.000,144.822 58.180,144.850 58.400 C 144.878 58.620,144.945 58.980,145.000 59.200 C 145.055 59.420,145.123 59.942,145.150 60.360 C 145.189 60.956,145.569 61.150,146.914 61.260 L 148.628 61.400 148.414 59.800 C 148.206 58.243,148.155 58.197,146.500 58.077 C 145.221 57.984,144.798 57.786,144.794 57.277 C 144.784 56.198,144.237 55.612,142.872 55.221 C 141.802 54.914,141.601 54.963,141.605 55.528 M280.270 55.086 C 280.162 55.262,279.954 56.037,279.810 56.808 L 279.547 58.210 281.373 58.065 C 283.055 57.931,283.200 57.834,283.200 56.840 C 283.200 56.246,283.382 55.578,283.605 55.355 C 283.878 55.082,283.434 54.920,282.239 54.858 C 281.265 54.808,280.379 54.911,280.270 55.086 M274.375 58.825 C 273.036 60.164,273.509 61.000,275.605 61.000 C 277.131 61.000,277.381 60.889,277.273 60.260 C 277.204 59.853,277.322 59.628,277.536 59.760 C 277.758 59.898,277.840 59.673,277.726 59.237 C 277.591 58.724,277.768 58.411,278.263 58.283 C 278.668 58.178,278.145 58.072,277.100 58.046 C 275.672 58.012,274.995 58.205,274.375 58.825 M149.403 61.195 C 149.267 61.415,149.413 61.493,149.732 61.371 C 150.320 61.145,151.370 63.297,150.901 63.766 C 150.676 63.990,150.977 64.041,153.200 64.151 C 154.056 64.193,154.218 64.416,154.324 65.700 C 154.474 67.516,158.000 68.162,158.000 66.374 C 158.000 64.738,157.245 63.927,155.981 64.204 C 155.035 64.412,154.622 64.249,153.776 63.337 C 151.834 61.241,149.946 60.317,149.403 61.195 M271.100 61.067 C 270.582 61.209,270.400 61.674,270.400 62.852 L 270.400 64.446 272.100 64.323 C 273.796 64.200,273.800 64.196,273.800 62.600 C 273.800 60.930,273.086 60.525,271.100 61.067 M266.400 64.318 C 265.015 64.538,264.400 65.132,264.400 66.249 C 264.400 67.087,264.215 67.200,262.850 67.200 C 261.434 67.200,261.278 67.308,261.050 68.450 C 260.665 70.375,260.684 70.400,262.600 70.400 C 264.237 70.400,264.400 70.312,264.400 69.433 C 264.400 67.711,264.812 67.200,266.199 67.200 C 267.407 67.200,267.526 67.085,267.679 65.776 C 267.866 64.173,267.798 64.096,266.400 64.318 M160.400 68.800 L 160.400 70.400 162.200 70.400 C 164.240 70.400,164.930 68.526,163.226 67.614 C 161.414 66.644,160.400 67.069,160.400 68.800 M385.701 70.600 C 385.705 71.480,385.787 71.793,385.883 71.295 C 385.979 70.798,385.975 70.078,385.875 69.695 C 385.775 69.313,385.696 69.720,385.701 70.600 M165.800 70.740 C 166.577 70.993,166.807 71.437,166.917 72.896 C 166.952 73.363,167.302 73.600,167.955 73.600 L 168.939 73.600 168.070 72.674 C 167.591 72.165,167.200 71.445,167.200 71.074 C 167.200 70.596,166.881 70.412,166.100 70.440 C 165.187 70.473,165.136 70.524,165.800 70.740 M257.743 70.955 C 255.195 72.371,254.861 73.600,257.024 73.600 C 257.807 73.600,258.352 73.446,258.235 73.257 C 258.119 73.068,258.185 72.348,258.384 71.657 C 258.582 70.966,258.712 70.418,258.672 70.439 C 258.632 70.461,258.214 70.693,257.743 70.955 M169.926 75.147 L 170.077 76.730 172.277 76.865 C 173.488 76.939,174.561 76.865,174.662 76.700 C 174.764 76.535,174.593 76.400,174.281 76.400 C 173.970 76.400,173.549 75.815,173.345 75.100 C 173.015 73.944,172.797 73.787,171.375 73.681 L 169.775 73.563 169.926 75.147 M252.513 73.861 C 252.245 73.969,251.910 74.675,251.768 75.429 C 251.536 76.664,251.379 76.800,250.179 76.800 C 248.587 76.800,248.254 77.224,248.602 78.810 C 248.932 80.313,251.559 80.649,251.650 79.200 C 251.678 78.760,251.745 78.220,251.800 78.000 C 251.855 77.780,251.923 77.420,251.950 77.200 C 251.978 76.980,252.611 76.800,253.357 76.800 C 254.791 76.800,255.200 76.304,255.200 74.567 C 255.200 73.605,253.952 73.277,252.513 73.861 M385.667 75.100 C 385.605 76.306,385.499 76.400,384.200 76.400 L 382.800 76.400 382.800 90.214 C 382.800 103.880,382.809 104.024,383.596 103.602 C 385.596 102.532,385.769 101.430,385.924 88.800 C 386.049 78.596,385.899 70.611,385.667 75.100 M175.508 77.300 C 175.731 77.575,176.002 78.160,176.111 78.600 C 176.240 79.125,176.323 78.953,176.354 78.100 C 176.388 77.148,176.226 76.800,175.751 76.800 C 175.282 76.800,175.215 76.939,175.508 77.300 M179.352 80.516 C 179.482 81.002,179.592 81.805,179.595 82.300 C 179.599 83.061,179.816 83.200,181.000 83.200 C 183.338 83.200,182.894 80.715,180.429 80.008 C 179.194 79.654,179.129 79.685,179.352 80.516 M245.566 80.241 C 244.837 81.119,245.676 81.612,246.469 80.771 C 247.003 80.205,247.029 80.020,246.598 79.855 C 246.301 79.741,245.837 79.914,245.566 80.241 M182.625 83.159 C 182.160 83.911,182.889 86.000,183.617 86.000 C 185.095 86.000,185.600 86.469,185.600 87.843 C 185.600 89.125,185.677 89.200,186.986 89.200 C 188.456 89.200,189.200 89.998,189.200 91.574 C 189.200 92.251,189.452 92.400,190.600 92.400 C 191.967 92.400,192.000 92.362,192.000 90.800 C 192.000 89.250,191.958 89.200,190.651 89.200 C 189.387 89.200,189.286 89.100,189.046 87.600 C 188.806 86.100,188.706 86.000,187.440 86.000 C 186.220 86.000,186.064 85.868,185.834 84.639 C 185.693 83.890,185.298 83.170,184.956 83.039 C 184.043 82.688,182.879 82.748,182.625 83.159 M70.432 89.986 C 70.407 95.473,71.339 98.000,73.389 98.000 C 73.522 98.000,73.606 95.530,73.575 92.510 C 73.531 88.076,73.426 87.149,73.031 87.690 C 72.561 88.333,71.031 87.308,71.007 86.333 C 71.003 86.187,70.877 85.943,70.726 85.793 C 70.575 85.642,70.443 87.529,70.432 89.986 M238.800 86.291 C 237.518 86.524,236.400 87.524,236.400 88.438 C 236.400 88.974,236.027 89.183,234.900 89.276 C 233.534 89.389,233.367 89.534,233.029 90.900 C 232.697 92.245,232.526 92.400,231.374 92.400 C 230.225 92.400,230.062 92.546,229.829 93.785 C 229.606 94.975,229.375 95.206,228.185 95.429 C 226.934 95.664,226.800 95.818,226.800 97.020 C 226.800 98.269,226.707 98.359,225.306 98.476 C 223.892 98.593,223.806 98.680,223.699 100.100 C 223.534 102.297,226.663 102.495,226.875 100.300 C 226.989 99.117,227.133 98.989,228.477 98.877 C 229.865 98.762,229.962 98.665,230.077 97.277 C 230.193 95.889,230.289 95.793,231.677 95.677 C 233.065 95.562,233.162 95.465,233.277 94.077 C 233.390 92.724,233.518 92.583,234.800 92.400 C 236.002 92.228,236.220 92.030,236.340 91.000 C 236.533 89.354,236.676 89.200,238.024 89.200 C 238.671 89.200,239.223 89.065,239.251 88.900 C 239.279 88.735,239.343 88.219,239.394 87.754 C 239.444 87.289,239.612 86.704,239.766 86.454 C 239.921 86.204,239.992 86.025,239.924 86.054 C 239.856 86.084,239.350 86.191,238.800 86.291 M194.000 92.800 C 194.776 93.301,195.200 93.301,195.200 92.800 C 195.200 92.580,194.795 92.403,194.300 92.406 C 193.572 92.411,193.515 92.486,194.000 92.800 M208.505 101.887 C 209.114 101.979,210.014 101.977,210.505 101.882 C 210.997 101.787,210.500 101.711,209.400 101.714 C 208.300 101.717,207.897 101.795,208.505 101.887 M212.800 102.303 C 213.350 102.686,213.818 103.225,213.840 103.500 C 213.862 103.775,213.907 104.180,213.940 104.400 C 213.975 104.634,215.539 104.800,217.700 104.799 L 221.400 104.798 221.489 103.529 C 221.539 102.831,221.809 102.115,222.089 101.936 C 222.370 101.758,220.170 101.611,217.200 101.609 C 211.950 101.605,211.828 101.625,212.800 102.303 M73.600 106.013 L 73.600 108.000 75.200 108.000 C 77.320 108.000,77.754 105.024,75.700 104.574 C 75.095 104.442,74.375 104.264,74.100 104.179 C 73.746 104.070,73.600 104.607,73.600 106.013 M67.614 108.774 C 66.638 110.597,67.049 111.254,69.083 111.122 C 70.952 111.001,70.967 110.988,71.060 109.500 C 71.172 107.715,68.484 107.148,67.614 108.774 M62.146 111.076 C 61.368 111.229,60.461 113.394,60.964 113.898 C 61.933 114.866,64.300 114.401,64.541 113.195 C 65.039 110.707,64.856 110.545,62.146 111.076 M55.381 114.303 C 54.011 115.274,54.765 117.200,56.515 117.200 C 58.234 117.200,58.244 117.191,58.333 115.683 C 58.424 114.141,56.727 113.348,55.381 114.303 M48.880 117.680 C 47.601 118.959,48.300 120.400,50.200 120.400 C 51.982 120.400,52.000 120.386,52.000 119.033 C 52.000 118.282,52.225 117.576,52.500 117.465 C 52.775 117.354,52.181 117.249,51.180 117.232 C 50.179 117.214,49.144 117.416,48.880 117.680 M382.124 117.773 C 381.862 118.071,381.726 118.393,381.821 118.488 C 381.916 118.583,381.455 118.581,380.797 118.485 L 379.600 118.309 379.600 123.155 C 379.600 128.544,379.574 128.488,381.298 126.764 C 382.489 125.572,382.541 125.375,382.720 121.364 C 382.913 117.010,382.894 116.895,382.124 117.773 M43.100 120.832 C 42.684 121.075,42.400 121.718,42.400 122.420 C 42.400 123.450,42.256 123.600,41.261 123.600 C 39.817 123.600,37.781 124.606,37.016 125.699 C 36.634 126.244,35.819 126.624,34.712 126.771 C 32.081 127.123,32.051 129.731,34.676 129.922 L 36.352 130.044 36.476 128.322 C 36.600 126.607,36.606 126.600,38.045 126.725 C 39.357 126.839,39.511 126.744,39.721 125.696 C 39.975 124.425,41.830 123.602,44.446 123.598 C 45.743 123.596,45.804 123.529,45.891 121.998 C 45.988 120.282,44.856 119.809,43.100 120.832 M28.200 129.949 C 27.204 130.160,26.979 130.424,26.875 131.502 C 26.750 132.793,26.654 132.855,24.600 132.959 C 23.973 132.991,23.773 133.325,23.676 134.500 L 23.552 136.000 25.176 136.000 C 26.760 136.000,26.800 135.966,26.800 134.623 C 26.800 133.289,26.853 133.242,28.500 133.123 C 30.192 133.001,30.201 132.992,30.323 131.300 C 30.454 129.488,30.434 129.475,28.200 129.949 M379.270 134.275 C 379.231 134.536,378.615 134.806,377.900 134.875 L 376.600 135.000 376.484 138.532 C 376.368 142.050,376.372 142.063,377.284 141.783 C 379.209 141.193,379.838 139.435,379.499 135.600 C 379.411 134.610,379.308 134.014,379.270 134.275 M18.557 136.391 C 18.059 136.593,17.612 137.238,17.467 137.966 C 17.248 139.059,17.062 139.200,15.837 139.200 C 14.331 139.200,13.722 140.093,14.200 141.600 C 14.639 142.982,17.198 142.726,17.206 141.300 C 17.212 140.178,17.685 139.104,18.145 139.166 C 20.234 139.445,20.644 139.198,20.738 137.600 C 20.839 135.886,20.404 135.645,18.557 136.391 M78.800 143.000 C 78.800 143.550,78.815 144.115,78.834 144.255 C 78.853 144.396,78.628 144.663,78.334 144.849 C 78.012 145.053,78.875 145.190,80.510 145.194 C 83.012 145.200,83.248 145.275,83.591 146.176 C 83.913 147.023,85.082 148.000,85.774 148.000 C 85.898 148.000,86.000 146.650,86.000 145.000 L 86.000 142.000 82.400 142.000 C 78.827 142.000,78.800 142.007,78.800 143.000 M6.800 145.553 C 5.663 145.754,5.330 146.038,5.026 147.069 C 4.732 148.066,4.375 148.391,3.365 148.580 C 2.068 148.824,1.600 149.421,1.600 150.833 C 1.600 151.333,1.322 151.600,0.800 151.600 C 0.133 151.600,0.000 151.867,0.000 153.200 C 0.000 155.371,1.373 155.538,1.771 153.415 C 1.992 152.235,2.229 151.993,3.378 151.778 C 4.516 151.564,4.764 151.317,4.976 150.186 C 5.202 148.983,5.379 148.834,6.714 148.723 C 8.159 148.603,8.203 148.553,8.295 146.900 C 8.348 145.965,8.348 145.224,8.295 145.253 C 8.243 145.282,7.570 145.417,6.800 145.553 M66.800 146.320 C 66.800 146.936,66.616 147.624,66.392 147.848 C 66.114 148.126,66.626 148.286,67.992 148.348 C 69.096 148.398,70.000 148.264,70.000 148.050 C 70.000 147.836,70.466 147.108,71.036 146.431 L 72.071 145.200 69.436 145.200 C 66.816 145.200,66.800 145.207,66.800 146.320 M375.097 147.234 C 374.710 147.459,374.236 147.546,374.042 147.426 C 373.531 147.110,373.225 148.643,373.482 150.229 C 373.725 151.724,373.851 151.789,375.374 151.210 C 376.287 150.863,376.400 150.599,376.400 148.810 C 376.400 146.718,376.264 146.554,375.097 147.234 M54.641 149.036 C 54.507 149.386,54.503 149.844,54.633 150.054 C 54.763 150.263,54.651 150.697,54.385 151.018 C 53.971 151.517,54.237 151.594,56.251 151.560 C 59.844 151.499,60.578 151.191,60.725 149.684 L 60.851 148.400 57.868 148.400 C 55.511 148.400,54.834 148.533,54.641 149.036 M86.032 152.313 C 86.007 153.982,86.147 154.477,86.700 154.672 C 87.085 154.808,87.805 155.284,88.300 155.729 L 89.200 156.539 89.200 153.870 L 89.200 151.200 87.833 151.200 C 87.082 151.200,86.376 150.975,86.265 150.700 C 86.154 150.425,86.049 151.151,86.032 152.313 M45.090 151.444 C 44.930 151.603,44.800 152.234,44.800 152.847 C 44.800 153.471,44.493 154.156,44.100 154.405 C 43.141 155.014,49.202 154.641,50.364 154.020 C 52.196 153.039,51.446 151.601,49.100 151.595 C 47.945 151.592,46.635 151.491,46.190 151.371 C 45.744 151.252,45.249 151.284,45.090 151.444 M35.600 155.767 C 35.600 156.299,35.491 157.019,35.357 157.367 C 34.931 158.477,39.064 157.978,41.100 156.673 C 42.730 155.629,41.624 154.800,38.600 154.800 C 35.694 154.800,35.600 154.830,35.600 155.767 M372.884 156.615 C 372.601 156.937,371.926 157.200,371.384 157.200 C 370.484 157.200,370.400 157.354,370.400 159.000 C 370.400 160.758,372.161 161.757,372.966 160.456 C 373.179 160.110,373.670 155.987,373.494 156.015 C 373.442 156.024,373.168 156.294,372.884 156.615 M26.309 159.237 C 26.023 161.189,30.147 161.434,31.700 159.557 C 32.832 158.189,32.558 158.000,29.445 158.000 L 26.491 158.000 26.309 159.237 M89.200 162.289 C 89.200 163.751,89.080 164.000,88.374 164.000 C 86.888 164.000,86.000 164.753,86.000 166.014 C 86.000 167.003,85.839 167.200,85.029 167.200 C 82.435 167.200,81.938 170.512,84.500 170.724 C 85.863 170.837,86.000 170.758,86.000 169.857 C 86.000 168.113,86.407 167.600,87.792 167.600 C 89.006 167.600,89.116 167.488,89.354 166.000 C 89.595 164.488,89.686 164.400,91.005 164.400 C 92.387 164.400,92.400 164.383,92.400 162.642 L 92.400 160.884 90.800 160.731 L 89.200 160.579 89.200 162.289 M19.194 161.700 C 19.186 162.879,18.781 163.462,17.800 163.707 C 17.360 163.817,18.047 163.928,19.326 163.954 C 22.262 164.012,23.200 163.536,23.200 161.986 C 23.200 160.829,23.150 160.800,21.200 160.800 C 19.394 160.800,19.199 160.887,19.194 161.700 M369.908 164.383 C 369.631 165.367,369.797 165.937,370.232 165.501 C 370.360 165.373,370.401 164.848,370.324 164.334 L 370.184 163.400 369.908 164.383 M10.400 164.800 C 10.400 166.020,10.364 166.162,9.917 166.700 C 9.597 167.086,9.871 167.200,11.118 167.200 C 13.012 167.200,14.000 166.886,14.000 166.283 C 14.000 166.046,14.391 165.435,14.870 164.926 L 15.739 164.000 13.070 164.000 C 10.667 164.000,10.400 164.080,10.400 164.800 M0.000 165.000 C 0.000 165.333,0.356 165.600,0.800 165.600 C 1.244 165.600,1.600 165.333,1.600 165.000 C 1.600 164.667,1.244 164.400,0.800 164.400 C 0.356 164.400,0.000 164.667,0.000 165.000 M0.000 166.600 C 0.000 167.003,0.403 167.200,1.229 167.200 C 2.321 167.200,2.390 167.133,1.857 166.600 C 1.527 166.270,0.974 166.000,0.629 166.000 C 0.283 166.000,0.000 166.270,0.000 166.600 M367.200 168.066 C 367.200 171.243,369.616 170.778,370.119 167.504 L 370.348 166.008 368.774 166.069 L 367.200 166.131 367.200 168.066 M81.167 171.288 C 80.291 172.015,79.541 173.916,80.015 174.209 C 80.227 174.340,80.400 174.280,80.400 174.076 C 80.400 173.871,80.715 173.705,81.100 173.707 C 83.134 173.715,83.254 173.632,83.125 172.303 C 82.988 170.884,82.168 170.459,81.167 171.288 M366.676 172.700 C 366.498 172.975,365.823 173.200,365.176 173.200 C 364.071 173.200,364.000 173.296,364.000 174.800 C 364.000 176.490,366.466 177.336,367.039 175.842 C 367.378 174.959,367.050 172.122,366.676 172.700 M77.948 176.685 C 77.074 176.817,76.853 177.108,76.646 178.401 C 76.459 179.572,76.125 180.090,75.299 180.491 C 74.504 180.876,74.204 181.317,74.213 182.082 C 74.221 182.664,74.086 183.053,73.913 182.947 C 73.741 182.840,73.600 183.241,73.600 183.838 C 73.600 184.842,73.653 184.877,74.300 184.303 C 74.685 183.962,75.360 183.617,75.800 183.538 C 76.426 183.425,76.627 183.025,76.723 181.697 C 76.837 180.122,76.929 180.000,77.999 180.000 C 79.348 180.000,79.475 179.850,79.660 178.034 C 79.809 176.583,79.617 176.433,77.948 176.685 M163.200 178.244 C 162.650 178.343,161.840 178.501,161.400 178.596 C 160.960 178.690,159.725 179.595,158.655 180.607 C 157.585 181.619,156.018 182.884,155.172 183.418 C 154.326 183.951,153.419 184.796,153.155 185.294 C 152.892 185.792,152.074 186.907,151.338 187.772 C 150.602 188.637,150.000 189.571,150.000 189.849 C 150.000 190.127,149.505 190.652,148.900 191.015 C 147.447 191.886,144.719 196.619,143.399 200.558 C 142.817 202.295,142.085 203.973,141.771 204.286 C 141.457 204.600,141.200 204.910,141.200 204.974 C 141.200 206.311,140.170 209.629,139.465 210.565 C 138.264 212.156,137.600 214.119,137.600 216.076 C 137.600 216.932,137.240 218.338,136.800 219.200 C 136.360 220.062,136.000 221.495,136.000 222.384 C 136.000 223.273,135.863 224.000,135.696 224.000 C 134.931 224.000,134.293 225.988,134.226 228.576 C 134.168 230.843,133.922 231.834,132.981 233.600 L 131.809 235.800 131.804 244.629 L 131.800 253.458 132.987 255.229 C 134.056 256.823,134.196 257.406,134.387 261.072 C 134.568 264.523,134.739 265.317,135.511 266.272 C 136.012 266.893,136.688 268.030,137.012 268.800 C 139.242 274.091,142.078 277.602,144.115 277.591 C 145.791 277.583,149.328 274.897,150.600 272.667 C 151.393 271.278,154.085 270.735,156.895 271.398 C 161.507 272.485,168.800 271.925,168.800 270.484 C 168.800 270.288,169.655 269.661,170.700 269.092 C 171.745 268.522,173.140 267.491,173.800 266.800 L 175.000 265.544 174.953 227.380 L 174.906 189.215 173.453 187.606 C 172.654 186.722,172.000 185.605,172.000 185.125 C 172.000 179.905,168.626 177.267,163.200 178.244 M363.539 180.633 C 363.506 180.835,363.460 181.270,363.439 181.599 C 363.417 181.929,363.129 182.217,362.799 182.239 C 360.802 182.371,360.800 182.373,360.800 184.000 C 360.800 185.760,361.745 186.198,362.948 184.995 C 363.585 184.358,364.272 180.939,363.848 180.515 C 363.712 180.378,363.573 180.432,363.539 180.633 M72.200 185.957 C 70.644 186.193,70.597 186.247,70.476 187.926 L 70.352 189.651 71.876 189.526 C 73.374 189.402,73.404 189.368,73.618 187.500 C 73.738 186.455,73.828 185.626,73.818 185.657 C 73.808 185.688,73.080 185.823,72.200 185.957 M359.300 188.325 C 358.057 188.445,357.900 188.656,357.900 190.200 C 357.900 191.820,358.031 192.000,359.213 192.000 C 360.584 192.000,360.909 191.473,360.727 189.542 C 360.608 188.290,360.513 188.208,359.300 188.325 M67.467 192.667 C 66.341 193.792,67.241 195.817,68.800 195.669 C 71.102 195.449,71.350 192.400,69.067 192.400 C 68.333 192.400,67.613 192.520,67.467 192.667 M356.325 194.793 C 355.734 194.971,355.149 195.016,355.025 194.892 C 354.901 194.768,354.800 195.507,354.800 196.533 C 354.800 198.799,356.832 199.419,357.604 197.388 C 357.995 196.360,358.001 194.372,357.613 194.434 C 357.496 194.453,356.916 194.615,356.325 194.793 M64.358 198.780 C 63.981 200.768,64.182 201.893,64.840 201.482 C 65.229 201.239,65.464 200.904,65.361 200.738 C 65.259 200.571,65.630 200.137,66.187 199.772 C 66.744 199.407,67.200 198.985,67.200 198.834 C 67.200 198.511,64.419 198.458,64.358 198.780 M353.000 201.200 C 351.404 201.399,351.400 201.404,351.540 203.000 C 351.759 205.516,354.155 205.510,354.628 202.992 C 354.977 201.134,354.829 200.971,353.000 201.200 M63.000 204.000 C 62.602 204.440,62.055 204.800,61.785 204.800 C 61.293 204.800,60.816 206.006,60.805 207.277 C 60.801 207.809,61.117 207.934,62.279 207.860 L 63.758 207.765 63.903 205.483 C 64.066 202.936,64.024 202.868,63.000 204.000 M63.438 206.462 C 63.615 206.748,63.548 206.815,63.262 206.638 C 63.008 206.481,62.800 206.528,62.800 206.743 C 62.800 206.958,63.025 207.224,63.300 207.335 C 63.661 207.481,63.667 207.546,63.324 207.568 C 62.710 207.609,62.281 206.916,62.600 206.400 C 62.919 205.883,63.088 205.896,63.438 206.462 M349.900 207.524 C 347.634 207.712,347.532 210.800,349.792 210.800 C 350.928 210.800,351.229 210.623,351.426 209.841 C 351.902 207.944,351.536 207.389,349.900 207.524 M104.806 211.876 C 104.813 216.329,104.946 216.689,106.720 217.044 L 108.000 217.300 108.000 213.450 C 108.000 209.338,108.076 209.481,105.876 209.495 C 105.434 209.498,105.233 209.291,105.359 208.963 C 105.472 208.667,105.393 208.319,105.183 208.189 C 104.949 208.045,104.802 209.480,104.806 211.876 M58.730 211.128 C 58.140 211.367,58.128 211.493,58.630 212.176 C 59.150 212.884,59.396 212.750,59.230 211.849 C 59.195 211.656,59.534 211.594,59.983 211.711 C 60.520 211.852,60.800 211.732,60.800 211.363 C 60.800 210.773,59.866 210.667,58.730 211.128 M92.000 212.400 L 92.000 214.000 90.400 214.000 C 88.843 214.000,88.800 214.037,88.800 215.376 C 88.800 216.677,88.719 216.758,87.300 216.876 C 85.881 216.993,85.793 217.081,85.676 218.500 C 85.559 219.913,85.473 220.000,84.200 220.000 C 82.927 220.000,82.841 220.087,82.724 221.500 C 82.607 222.919,82.519 223.007,81.100 223.124 C 79.762 223.235,79.600 223.367,79.600 224.344 C 79.600 225.736,78.936 226.400,77.544 226.400 C 76.567 226.400,76.435 226.562,76.324 227.900 C 76.207 229.311,76.113 229.407,74.736 229.522 C 73.365 229.636,73.275 229.726,73.336 230.922 C 73.432 232.842,75.591 232.825,76.143 230.900 C 76.443 229.853,76.723 229.600,77.578 229.600 C 78.937 229.600,79.600 228.926,79.600 227.545 C 79.600 226.603,79.781 226.433,80.900 226.325 C 81.970 226.222,82.266 225.975,82.574 224.931 C 82.870 223.927,83.223 223.610,84.259 223.415 C 85.367 223.207,85.610 222.956,85.829 221.785 C 86.037 220.678,86.275 220.400,87.016 220.400 C 88.209 220.400,89.200 219.401,89.200 218.197 C 89.200 217.422,89.435 217.228,90.500 217.125 C 91.687 217.011,91.811 216.869,91.924 215.500 C 92.045 214.042,92.092 214.000,93.624 214.000 C 95.196 214.000,95.200 213.996,95.200 212.400 L 95.200 210.800 93.600 210.800 L 92.000 210.800 92.000 212.400 M347.800 213.397 C 347.580 213.470,346.916 213.636,346.324 213.767 C 345.421 213.965,345.228 214.245,345.124 215.502 C 345.007 216.918,344.918 217.007,343.500 217.124 C 341.579 217.283,341.072 220.400,342.967 220.400 C 344.767 220.400,345.200 220.004,345.200 218.357 C 345.200 217.011,345.322 216.799,346.100 216.794 C 347.467 216.785,347.892 216.342,348.112 214.700 C 348.222 213.875,348.287 213.214,348.256 213.232 C 348.225 213.249,348.020 213.323,347.800 213.397 M172.122 216.227 C 174.020 217.603,174.800 219.818,174.798 223.826 C 174.794 229.847,174.145 231.044,171.441 230.016 C 170.218 229.551,167.419 230.649,166.182 232.079 C 163.655 235.000,163.455 235.561,163.143 240.591 C 162.724 247.323,162.415 249.242,161.552 250.462 C 160.433 252.042,160.483 257.418,161.635 259.369 C 162.359 260.596,162.435 261.171,162.207 263.692 C 162.010 265.866,162.102 267.042,162.572 268.350 C 163.391 270.634,163.386 270.662,162.100 271.018 C 159.543 271.727,157.600 270.910,157.600 269.126 C 157.600 268.441,157.312 266.461,156.961 264.726 C 155.794 258.967,156.327 238.355,157.751 234.200 C 158.354 232.440,158.995 229.711,159.175 228.137 C 159.438 225.844,159.746 224.967,160.718 223.737 C 161.387 222.891,162.120 221.501,162.349 220.648 C 163.479 216.427,168.971 213.943,172.122 216.227 M55.067 217.467 C 54.453 218.080,54.778 220.894,55.433 220.643 C 55.781 220.509,56.501 220.400,57.033 220.400 C 57.895 220.400,58.000 220.226,58.000 218.800 C 58.000 217.238,56.140 216.393,55.067 217.467 M53.507 222.800 C 53.232 223.240,52.691 223.600,52.304 223.600 C 51.717 223.600,51.605 223.950,51.632 225.700 C 51.649 226.855,51.754 227.575,51.865 227.300 C 51.976 227.025,52.682 226.800,53.433 226.800 L 54.800 226.800 54.800 224.400 C 54.800 221.927,54.378 221.405,53.507 222.800 M108.011 225.875 C 108.079 229.749,108.548 231.357,109.772 231.914 C 110.994 232.471,111.072 232.166,111.032 227.000 L 111.000 223.000 109.478 222.875 L 107.957 222.749 108.011 225.875 M339.200 224.800 C 339.200 226.497,340.375 227.065,341.520 225.920 C 342.644 224.796,342.104 223.200,340.600 223.200 C 339.233 223.200,339.200 223.238,339.200 224.800 M363.400 226.685 C 361.965 226.819,359.200 227.808,359.200 228.186 C 359.200 228.268,359.099 228.597,358.976 228.918 C 358.800 229.377,359.309 229.561,361.365 229.781 C 364.540 230.122,365.487 229.871,365.496 228.691 C 365.509 227.018,365.601 226.846,366.392 226.998 C 366.827 227.082,367.288 226.982,367.415 226.775 C 367.643 226.407,366.612 226.383,363.400 226.685 M386.000 231.401 L 386.000 236.087 387.100 235.815 C 388.766 235.404,388.925 235.066,388.870 232.070 C 388.818 229.224,388.307 227.200,387.643 227.200 C 387.435 227.200,386.981 227.091,386.633 226.957 C 386.078 226.744,386.000 227.292,386.000 231.401 M48.938 230.077 C 47.943 231.618,48.543 233.200,50.123 233.200 L 51.646 233.200 51.523 231.500 C 51.393 229.708,49.758 228.808,48.938 230.077 M348.200 229.904 C 344.441 230.414,344.760 232.612,348.641 232.940 C 352.145 233.236,352.400 233.147,352.400 231.638 C 352.400 230.890,352.677 230.399,353.239 230.148 C 354.140 229.746,350.624 229.576,348.200 229.904 M247.189 231.491 C 243.666 233.950,243.522 234.541,243.542 246.400 C 243.559 256.935,243.008 270.778,242.424 274.476 C 241.752 278.725,243.520 279.297,248.889 276.567 C 250.368 275.815,251.943 275.200,252.389 275.200 C 252.835 275.200,253.205 274.975,253.211 274.700 C 253.327 269.177,253.701 264.984,254.388 261.484 C 255.728 254.657,256.277 235.943,255.200 233.815 C 253.830 231.109,249.524 229.860,247.189 231.491 M338.408 231.390 C 338.130 231.726,337.474 232.000,336.951 232.000 C 336.076 232.000,336.000 232.161,336.000 234.000 L 336.000 236.000 338.600 236.000 C 340.837 236.000,341.200 235.899,341.200 235.280 C 341.200 234.884,341.400 234.360,341.645 234.115 C 342.303 233.457,341.646 232.702,340.635 232.955 C 339.662 233.200,338.038 231.798,338.925 231.480 C 339.186 231.386,339.291 231.191,339.157 231.045 C 339.023 230.900,338.686 231.055,338.408 231.390 M71.524 232.723 C 70.187 232.834,70.036 232.966,69.924 234.123 C 69.815 235.246,69.631 235.424,68.400 235.600 C 67.113 235.784,66.990 235.921,66.876 237.300 C 66.774 238.537,66.598 238.801,65.876 238.806 C 64.590 238.815,64.132 239.250,63.931 240.653 C 63.702 242.258,65.832 241.808,66.245 240.164 C 66.418 239.473,66.914 239.092,68.034 238.791 C 69.294 238.451,69.645 238.137,69.912 237.107 C 70.164 236.136,70.538 235.763,71.515 235.510 C 72.387 235.284,72.867 234.873,73.034 234.207 C 73.388 232.798,73.172 232.586,71.524 232.723 M46.606 236.946 C 44.790 238.274,45.477 244.234,47.493 244.640 C 48.431 244.829,48.611 245.079,48.674 246.273 C 48.768 248.038,48.782 248.051,50.972 248.298 C 52.150 248.431,52.696 248.659,52.533 248.951 C 52.383 249.221,52.493 249.206,52.808 248.913 C 53.165 248.583,54.083 248.505,55.667 248.670 C 58.148 248.929,58.003 249.035,58.150 246.861 C 58.178 246.455,58.470 245.793,58.800 245.391 C 59.342 244.729,59.336 244.694,58.732 245.029 C 58.364 245.233,56.060 245.344,53.612 245.275 C 48.332 245.126,48.400 245.198,48.400 239.774 C 48.400 236.211,48.150 235.817,46.606 236.946 M111.015 239.504 C 110.897 239.813,110.800 240.591,110.800 241.233 C 110.800 242.362,110.736 242.400,108.863 242.400 L 106.926 242.400 107.168 243.900 C 107.526 246.123,110.770 246.496,110.847 244.323 L 110.895 243.000 111.150 244.200 C 111.331 245.052,111.673 245.438,112.327 245.531 C 112.834 245.603,113.365 245.963,113.506 246.331 C 113.715 246.874,113.815 246.812,114.042 246.000 C 114.421 244.639,114.457 240.305,114.094 239.755 C 113.623 239.043,111.266 238.850,111.015 239.504 M382.800 239.633 C 382.800 240.608,383.735 240.470,383.929 239.467 C 384.006 239.072,383.802 238.800,383.429 238.800 C 383.058 238.800,382.800 239.142,382.800 239.633 M382.216 241.573 C 382.071 241.808,381.434 242.000,380.801 242.000 C 379.758 242.000,379.636 242.143,379.524 243.500 C 379.407 244.914,379.315 245.007,377.923 245.123 C 376.535 245.238,376.438 245.335,376.323 246.723 C 376.207 248.118,376.116 248.207,374.688 248.325 C 373.813 248.397,373.201 248.650,373.236 248.925 C 373.451 250.650,373.162 251.129,371.700 251.475 C 370.875 251.670,370.178 252.048,370.150 252.315 C 370.123 252.582,370.078 253.149,370.050 253.576 C 370.012 254.171,369.654 254.381,368.512 254.476 C 367.169 254.588,367.018 254.717,366.964 255.800 C 366.931 256.460,366.881 257.135,366.852 257.300 C 366.823 257.465,366.181 257.600,365.424 257.600 C 364.123 257.600,364.042 257.681,363.924 259.100 C 363.807 260.519,363.719 260.607,362.300 260.724 C 360.892 260.841,360.800 260.930,360.800 262.181 C 360.800 263.599,360.333 263.971,358.467 264.039 C 357.471 264.075,357.498 264.118,358.878 264.685 C 359.834 265.077,360.399 265.594,360.478 266.146 C 360.680 267.563,366.800 267.679,366.800 266.266 C 366.800 264.817,365.882 264.319,363.163 264.293 C 360.823 264.271,360.771 264.250,362.054 263.835 C 363.063 263.509,363.496 263.075,363.783 262.100 C 364.052 261.186,364.408 260.798,364.983 260.794 C 366.107 260.785,366.543 260.400,367.013 259.000 C 367.312 258.108,367.701 257.767,368.531 257.671 C 369.665 257.540,369.753 257.425,370.168 255.525 C 370.356 254.666,370.662 254.425,371.701 254.325 C 372.849 254.215,373.023 254.037,373.200 252.800 C 373.360 251.678,373.599 251.373,374.400 251.262 C 375.760 251.073,376.400 250.477,376.400 249.396 C 376.400 248.681,376.688 248.435,377.761 248.234 C 379.172 247.969,379.600 247.401,379.600 245.794 C 379.600 245.065,379.848 244.825,380.700 244.727 C 381.581 244.625,381.901 244.290,382.309 243.042 C 382.803 241.529,382.751 240.709,382.216 241.573 M60.684 242.800 C 60.518 243.436,60.672 243.600,61.437 243.600 C 62.133 243.600,62.400 243.378,62.400 242.800 C 62.400 242.283,62.133 242.000,61.647 242.000 C 61.230 242.000,60.800 242.357,60.684 242.800 M87.100 242.299 C 90.455 242.366,95.945 242.366,99.300 242.299 C 102.655 242.232,99.910 242.178,93.200 242.178 C 86.490 242.178,83.745 242.232,87.100 242.299 M64.593 242.811 C 64.444 243.052,63.890 243.414,63.361 243.615 C 61.975 244.142,62.161 245.072,63.700 245.309 C 68.025 245.975,77.600 245.636,77.600 244.817 C 77.600 243.461,77.622 243.417,78.526 242.933 C 79.223 242.560,77.927 242.456,72.132 242.419 C 67.252 242.389,64.775 242.517,64.593 242.811 M51.600 256.133 C 51.600 256.940,51.735 257.621,51.900 257.646 C 52.065 257.671,52.731 257.753,53.381 257.828 L 54.562 257.965 53.381 256.950 C 52.731 256.392,52.200 255.785,52.200 255.601 C 52.200 255.417,52.065 255.132,51.900 254.967 C 51.735 254.802,51.600 255.327,51.600 256.133 M54.800 260.200 C 54.800 260.591,55.183 260.796,55.900 260.787 C 56.954 260.775,56.967 260.750,56.224 260.187 C 55.234 259.439,54.800 259.443,54.800 260.200 M58.000 261.986 C 58.000 263.300,58.895 264.000,60.574 264.000 C 61.504 264.000,61.600 263.851,61.600 262.400 L 61.600 260.800 59.800 260.800 C 58.071 260.800,58.000 260.847,58.000 261.986 M64.244 265.100 C 64.604 266.627,64.866 266.831,66.797 267.090 C 68.416 267.307,68.471 267.281,68.046 266.485 C 67.800 266.027,67.600 265.281,67.600 264.826 C 67.600 264.113,67.353 264.000,65.792 264.000 C 64.024 264.000,63.990 264.024,64.244 265.100 M70.400 268.413 C 70.400 269.639,70.522 269.741,72.500 270.174 C 73.618 270.419,74.045 271.200,73.062 271.200 C 72.422 271.200,71.200 272.467,71.200 273.131 C 71.200 273.450,72.221 273.600,74.400 273.600 C 76.953 273.600,77.600 273.481,77.600 273.010 C 77.600 272.686,78.140 272.141,78.800 271.800 C 80.795 270.768,80.372 269.950,77.994 270.240 C 74.872 270.620,74.000 270.260,74.000 268.592 C 74.000 267.209,73.989 267.200,72.200 267.200 C 70.463 267.200,70.400 267.242,70.400 268.413 M369.300 267.632 C 369.716 267.875,370.000 268.518,370.000 269.220 C 370.000 270.337,370.091 270.402,371.700 270.429 C 373.634 270.462,375.798 271.557,375.805 272.506 C 375.808 272.856,375.943 273.276,376.105 273.438 C 376.267 273.601,376.400 272.995,376.400 272.093 C 376.400 270.519,376.350 270.455,375.162 270.489 C 373.833 270.527,373.216 269.913,373.206 268.543 C 373.199 267.515,372.493 267.196,370.267 267.212 C 368.940 267.222,368.743 267.308,369.300 267.632 M64.390 274.626 C 63.632 276.619,63.821 276.852,66.087 276.721 C 68.010 276.610,68.176 276.521,68.190 275.600 C 68.199 275.050,68.350 274.375,68.526 274.100 C 68.768 273.723,68.345 273.600,66.814 273.600 C 64.999 273.600,64.738 273.710,64.390 274.626 M379.338 275.200 C 379.723 276.643,379.891 276.800,381.040 276.800 C 382.386 276.800,382.800 277.326,382.800 279.033 C 382.800 279.868,382.987 280.000,384.176 280.000 C 385.477 280.000,385.558 280.081,385.676 281.500 C 385.793 282.919,385.881 283.007,387.300 283.124 C 388.706 283.241,388.800 283.331,388.800 284.573 C 388.800 285.809,388.907 285.915,390.400 286.154 C 391.903 286.394,392.000 286.492,392.000 287.770 C 392.000 289.045,392.100 289.147,393.600 289.400 C 395.101 289.654,395.200 289.755,395.200 291.035 C 395.200 292.320,395.279 292.400,396.557 292.400 C 397.991 292.400,398.400 292.896,398.400 294.633 C 398.400 295.333,398.621 295.600,399.200 295.600 C 399.867 295.600,400.000 295.333,400.000 294.000 C 400.000 292.683,399.863 292.400,399.224 292.400 C 398.616 292.400,398.421 292.075,398.324 290.900 C 398.207 289.486,398.115 289.393,396.723 289.277 C 395.335 289.162,395.238 289.065,395.123 287.677 C 395.007 286.285,394.914 286.193,393.500 286.076 C 392.083 285.959,392.000 285.876,392.000 284.583 C 392.000 283.416,391.839 283.180,390.900 282.974 C 388.972 282.552,388.860 282.468,388.729 281.347 C 388.628 280.487,388.318 280.174,387.309 279.914 C 386.306 279.656,385.944 279.294,385.685 278.291 C 385.407 277.214,385.124 276.967,383.976 276.800 C 382.876 276.640,382.574 276.399,382.472 275.600 C 382.312 274.354,381.372 273.600,379.979 273.600 C 378.929 273.600,378.918 273.626,379.338 275.200 M59.100 276.687 C 58.495 276.778,58.000 277.083,58.000 277.365 C 58.000 277.646,57.620 278.219,57.156 278.638 L 56.312 279.400 57.456 279.653 C 60.417 280.307,61.200 280.103,61.200 278.680 C 61.200 277.954,61.416 277.144,61.680 276.880 C 62.186 276.374,61.501 276.323,59.100 276.687 M52.100 279.864 C 51.818 279.978,51.600 280.759,51.600 281.656 L 51.600 283.246 53.300 283.123 C 54.955 283.003,55.006 282.957,55.213 281.400 C 55.430 279.775,54.026 279.082,52.100 279.864 M48.564 283.258 C 48.221 283.813,49.090 283.968,49.768 283.473 C 50.396 283.014,50.382 282.971,49.598 282.971 C 49.127 282.971,48.662 283.100,48.564 283.258 M48.603 291.205 C 48.788 291.504,48.953 292.390,48.970 293.174 C 48.997 294.482,51.419 296.006,52.140 295.170 C 52.704 294.515,51.835 292.000,51.045 292.000 C 50.568 292.000,49.748 291.699,49.223 291.331 C 48.593 290.890,48.382 290.847,48.603 291.205 M56.400 295.597 C 56.400 295.815,56.760 296.218,57.200 296.493 C 57.640 296.768,58.000 297.200,58.000 297.453 C 58.000 298.113,58.979 298.400,61.233 298.400 C 63.107 298.400,63.830 297.927,62.649 297.474 C 62.300 297.340,62.171 296.887,62.296 296.232 L 62.493 295.200 59.447 295.200 C 57.700 295.200,56.400 295.369,56.400 295.597 M67.385 299.500 C 67.782 301.109,68.062 301.265,70.963 301.498 L 73.600 301.710 73.636 303.355 L 73.672 305.000 74.035 303.747 C 74.255 302.988,74.754 302.382,75.299 302.210 C 76.152 301.942,76.136 301.911,75.000 301.633 C 73.324 301.222,71.937 300.425,72.190 300.016 C 72.828 298.984,71.861 298.400,69.514 298.400 L 67.113 298.400 67.385 299.500 M353.920 305.280 C 354.184 305.544,354.400 306.253,354.400 306.856 C 354.400 307.833,354.562 307.965,355.900 308.076 C 357.314 308.193,357.407 308.285,357.523 309.677 C 357.638 311.065,357.735 311.162,359.123 311.277 C 360.546 311.395,360.604 311.461,360.721 313.059 C 360.831 314.574,362.923 315.816,363.940 314.970 C 364.487 314.515,362.969 311.878,361.957 311.525 C 361.066 311.214,360.800 310.873,360.800 310.041 C 360.800 308.657,360.130 308.000,358.720 308.000 C 357.333 308.000,357.228 307.047,358.470 305.726 L 359.339 304.800 356.390 304.800 C 354.095 304.800,353.547 304.907,353.920 305.280 M370.706 305.818 C 370.828 306.461,371.306 307.020,371.952 307.278 C 373.159 307.760,382.003 308.156,381.400 307.702 C 381.017 307.413,380.828 306.904,380.620 305.600 C 380.542 305.111,379.600 304.979,375.516 304.888 L 370.507 304.777 370.706 305.818 M67.384 308.350 C 67.283 308.451,67.200 309.349,67.200 310.347 C 67.200 311.757,67.307 312.053,67.680 311.680 C 67.944 311.416,68.664 311.200,69.280 311.200 C 70.321 311.200,70.400 311.087,70.400 309.587 C 70.400 308.070,68.460 307.273,67.384 308.350 M388.300 308.777 C 388.795 309.190,389.200 309.705,389.200 309.921 C 389.200 310.583,390.324 310.800,393.733 310.796 C 398.974 310.789,400.000 310.519,400.000 309.148 L 400.000 308.000 393.700 308.013 C 387.484 308.026,387.412 308.037,388.300 308.777 M65.769 315.106 C 65.388 315.366,64.000 317.860,64.000 318.285 C 64.000 318.374,64.168 318.343,64.374 318.216 C 64.607 318.072,64.607 318.479,64.374 319.290 C 64.168 320.007,64.000 320.668,64.000 320.757 C 64.000 320.846,64.542 320.352,65.203 319.659 C 65.865 318.967,66.585 318.400,66.803 318.400 C 67.022 318.400,67.200 317.590,67.200 316.600 C 67.200 314.832,66.794 314.408,65.769 315.106 M364.000 319.051 C 364.000 320.833,364.204 320.987,366.284 320.770 C 366.441 320.754,366.698 321.069,366.856 321.470 C 367.089 322.060,367.140 322.008,367.125 321.200 C 367.077 318.714,366.638 317.841,365.299 317.567 L 364.000 317.301 364.000 319.051 M61.431 324.074 C 60.680 326.480,60.791 328.057,61.690 327.777 C 64.387 326.936,64.454 326.873,64.324 325.301 C 64.193 323.720,61.851 322.727,61.431 324.074 M367.200 325.200 C 367.200 326.627,367.305 326.800,368.171 326.800 C 368.706 326.800,369.456 327.113,369.839 327.496 C 370.500 328.158,370.522 328.096,370.271 326.263 C 369.814 322.928,367.200 322.024,367.200 325.200 M370.302 331.078 C 370.053 333.070,370.160 333.200,372.042 333.200 L 373.636 333.200 373.365 331.700 C 373.040 329.902,373.252 330.147,371.746 329.825 C 370.535 329.566,370.486 329.608,370.302 331.078 M59.720 332.130 C 59.544 332.422,59.085 332.776,58.700 332.918 C 57.762 333.262,57.652 337.867,58.582 337.867 C 58.903 337.867,59.072 337.717,58.959 337.533 C 58.845 337.350,59.303 337.200,59.976 337.200 C 61.170 337.200,61.200 337.154,61.195 335.300 C 61.185 332.142,60.544 330.764,59.720 332.130 M91.600 334.167 C 91.600 334.918,91.375 335.612,91.100 335.708 C 90.274 335.996,93.900 336.486,94.783 336.205 C 95.423 336.002,95.600 335.606,95.600 334.373 L 95.600 332.800 93.600 332.800 L 91.600 332.800 91.600 334.167 M82.731 337.600 C 82.560 339.401,83.188 339.601,86.559 338.819 C 90.196 337.976,89.694 336.000,85.842 336.000 L 82.884 336.000 82.731 337.600 M373.523 336.877 C 373.231 338.826,373.607 339.513,375.058 339.683 L 376.437 339.844 376.319 338.022 C 376.178 335.859,373.821 334.894,373.523 336.877 M92.000 338.600 C 92.000 338.930,91.730 339.200,91.400 339.200 C 90.456 339.200,89.200 340.698,89.200 341.824 C 89.200 342.528,89.352 342.753,89.689 342.545 C 89.957 342.379,90.677 342.281,91.289 342.328 C 92.380 342.411,92.400 342.372,92.400 340.206 C 92.400 338.993,92.310 338.000,92.200 338.000 C 92.090 338.000,92.000 338.270,92.000 338.600 M58.114 340.600 C 58.117 341.700,58.195 342.103,58.287 341.495 C 58.379 340.886,58.377 339.986,58.282 339.495 C 58.187 339.003,58.111 339.500,58.114 340.600 M75.600 340.120 C 75.600 340.626,75.384 341.256,75.120 341.520 C 74.747 341.893,75.084 342.000,76.640 342.000 C 78.839 342.000,79.600 341.517,79.600 340.120 C 79.600 339.283,79.420 339.200,77.600 339.200 C 75.780 339.200,75.600 339.283,75.600 340.120 M331.875 339.514 C 332.136 339.680,332.537 340.308,332.765 340.908 C 333.170 341.974,333.258 342.000,336.439 342.000 C 339.280 342.000,339.635 341.924,339.204 341.404 C 338.932 341.077,338.505 340.931,338.255 341.081 C 338.005 341.231,338.047 341.049,338.349 340.677 C 338.985 339.892,338.430 339.763,337.591 340.500 C 337.277 340.775,337.359 340.595,337.773 340.100 L 338.524 339.200 334.962 339.206 C 333.003 339.209,331.614 339.348,331.875 339.514 M71.900 341.894 C 70.855 341.976,69.977 342.169,69.949 342.322 C 69.921 342.475,69.857 342.981,69.806 343.446 C 69.756 343.911,69.582 344.506,69.419 344.769 C 69.202 345.120,69.635 345.214,71.047 345.123 C 72.878 345.006,72.984 344.935,73.246 343.648 C 73.397 342.905,73.763 342.143,74.060 341.954 C 74.357 341.766,74.420 341.642,74.200 341.678 C 73.980 341.715,72.945 341.812,71.900 341.894 M141.600 343.120 C 141.600 343.736,141.384 344.456,141.120 344.720 C 140.389 345.451,144.558 345.345,146.008 344.596 C 147.029 344.068,148.000 342.913,148.000 342.226 C 148.000 342.102,146.560 342.000,144.800 342.000 L 141.600 342.000 141.600 343.120 M148.800 342.951 C 148.800 344.147,149.547 344.777,151.305 345.062 C 152.756 345.297,152.801 345.198,152.463 342.500 C 152.330 341.441,148.800 341.875,148.800 342.951 M342.400 343.120 C 342.400 344.662,343.075 345.200,345.012 345.200 L 346.664 345.200 346.632 343.600 L 346.600 342.001 344.500 342.000 C 342.467 342.000,342.400 342.035,342.400 343.120 M376.394 348.121 C 376.386 355.158,376.696 354.725,371.701 354.692 C 367.097 354.661,366.970 354.709,367.491 356.275 C 368.274 358.631,376.400 357.989,376.400 355.571 C 376.400 355.058,376.677 354.800,377.226 354.800 C 379.322 354.800,379.600 354.248,379.598 350.086 C 379.595 345.013,379.147 343.399,377.591 342.857 L 376.400 342.442 376.394 348.121 M348.783 346.383 C 349.012 347.790,349.746 348.262,351.858 348.360 C 352.633 348.396,352.686 348.267,352.405 347.020 C 352.233 346.261,352.174 345.559,352.273 345.460 C 352.372 345.362,351.576 345.218,350.505 345.140 L 348.557 345.000 348.783 346.383 M132.142 346.786 L 131.718 348.373 133.232 348.227 C 135.256 348.032,135.600 347.763,135.600 346.376 C 135.600 344.289,132.717 344.631,132.142 346.786 M158.148 346.100 C 158.281 346.595,158.392 347.127,158.395 347.281 C 158.404 347.748,161.273 348.395,163.343 348.398 C 164.951 348.400,165.244 348.291,165.043 347.767 C 164.909 347.419,164.800 346.699,164.800 346.167 C 164.800 345.219,164.732 345.200,161.353 345.200 C 157.974 345.200,157.911 345.218,158.148 346.100 M278.859 346.100 C 278.886 346.595,278.775 347.315,278.611 347.700 C 278.353 348.308,278.542 348.394,280.057 348.354 C 281.016 348.328,281.485 348.225,281.100 348.124 C 280.605 347.995,280.400 347.540,280.400 346.571 C 280.400 345.469,280.244 345.200,279.604 345.200 C 279.031 345.200,278.823 345.452,278.859 346.100 M332.800 352.649 L 332.800 358.684 334.100 359.057 C 334.815 359.262,335.400 359.633,335.400 359.882 C 335.400 360.130,335.556 360.483,335.747 360.667 C 335.944 360.855,336.018 358.510,335.919 355.279 L 335.744 349.557 334.272 348.085 L 332.800 346.613 332.800 352.649 M123.600 349.200 C 123.600 350.420,123.564 350.562,123.117 351.100 C 122.470 351.880,125.402 351.740,126.714 350.928 C 127.891 350.200,128.800 349.239,128.800 348.724 C 128.800 348.546,127.630 348.400,126.200 348.400 C 123.867 348.400,123.600 348.482,123.600 349.200 M169.471 349.300 C 169.916 349.795,170.392 350.515,170.528 350.900 C 170.801 351.674,174.400 351.953,174.400 351.200 C 174.400 350.980,174.225 350.800,174.010 350.800 C 173.790 350.800,173.725 350.277,173.860 349.600 L 174.100 348.400 171.380 348.400 L 168.661 348.400 169.471 349.300 M263.154 349.100 C 263.053 350.631,262.978 350.841,262.400 351.207 C 261.157 351.996,268.472 351.640,270.268 350.825 C 274.056 349.105,273.400 348.400,268.014 348.400 C 263.713 348.400,263.195 348.475,263.154 349.100 M283.044 349.500 C 283.401 351.016,283.554 351.129,285.600 351.382 C 286.590 351.505,287.175 351.499,286.900 351.370 C 286.625 351.240,286.400 350.518,286.400 349.767 C 286.400 348.413,286.383 348.400,284.592 348.400 C 282.824 348.400,282.790 348.424,283.044 349.500 M354.806 349.300 C 354.816 350.690,355.288 351.141,357.026 351.419 L 358.628 351.675 358.472 350.037 L 358.316 348.400 356.558 348.400 C 355.000 348.400,354.801 348.502,354.806 349.300 M86.782 349.422 C 86.488 349.775,86.196 351.462,86.106 353.322 C 85.993 355.645,86.066 356.426,86.357 356.003 C 86.610 355.635,87.235 355.454,87.984 355.533 L 89.200 355.660 89.200 352.230 C 89.200 348.608,88.313 347.577,86.782 349.422 M361.982 351.479 C 360.677 351.682,360.731 354.349,362.044 354.470 C 364.335 354.682,365.151 354.644,364.959 354.333 C 364.841 354.143,364.658 353.507,364.551 352.921 C 364.445 352.335,364.267 351.708,364.156 351.528 C 363.951 351.196,363.812 351.193,361.982 351.479 M119.698 352.600 C 119.803 353.150,119.734 353.600,119.545 353.600 C 119.355 353.600,119.200 353.870,119.200 354.200 C 119.200 355.022,119.440 354.963,121.027 353.753 C 122.842 352.368,122.816 351.600,120.953 351.600 C 119.626 351.600,119.522 351.682,119.698 352.600 M178.400 351.897 C 178.400 352.076,178.738 352.512,179.152 352.866 C 179.565 353.220,179.970 353.708,180.052 353.952 C 180.133 354.195,181.589 354.511,183.286 354.654 L 186.372 354.915 186.233 353.358 L 186.094 351.800 182.247 351.686 C 180.131 351.623,178.400 351.718,178.400 351.897 M243.800 352.000 C 243.936 352.220,243.867 352.400,243.647 352.400 C 243.426 352.400,243.314 352.754,243.397 353.187 C 243.520 353.823,243.267 354.020,242.074 354.219 C 239.450 354.657,239.729 354.736,244.000 354.764 C 249.342 354.799,251.250 354.494,251.493 353.567 C 251.595 353.175,251.931 352.759,252.239 352.640 C 253.943 351.987,252.433 351.600,248.176 351.600 C 245.196 351.600,243.641 351.742,243.800 352.000 M289.200 352.953 C 289.200 354.397,289.803 354.783,292.073 354.795 C 292.774 354.798,293.230 355.064,293.388 355.563 C 293.859 357.046,295.600 357.057,295.600 355.576 C 295.600 355.058,295.325 354.800,294.774 354.800 C 293.288 354.800,292.400 354.047,292.400 352.786 C 292.400 351.669,292.307 351.600,290.800 351.600 C 289.249 351.600,289.200 351.641,289.200 352.953 M114.900 354.723 C 113.781 354.833,113.600 355.003,113.600 355.945 C 113.600 356.547,113.401 357.239,113.158 357.482 C 112.607 358.033,115.560 357.712,116.256 357.146 C 116.862 356.653,117.162 354.525,116.621 354.564 C 116.389 354.581,115.615 354.652,114.900 354.723 M201.700 354.718 C 196.951 354.910,197.895 357.016,203.015 357.652 C 206.553 358.091,227.418 357.921,228.464 357.445 C 229.080 357.164,229.838 355.304,229.481 354.948 C 229.285 354.752,205.677 354.556,201.700 354.718 M295.200 357.124 C 295.200 357.339,295.485 357.624,295.833 357.757 C 296.223 357.907,296.406 357.818,296.308 357.525 C 296.109 356.927,295.200 356.598,295.200 357.124 M107.807 358.100 C 107.715 358.375,107.585 359.050,107.520 359.600 C 107.420 360.435,107.159 360.620,105.941 360.722 C 104.654 360.829,103.480 362.940,104.179 363.889 C 104.620 364.486,107.182 362.992,107.397 362.012 C 107.617 361.013,107.865 360.827,109.127 360.723 C 111.405 360.533,111.672 357.600,109.412 357.600 C 108.618 357.600,107.900 357.824,107.807 358.100 M298.600 359.346 C 298.600 360.507,298.719 360.616,300.202 360.814 L 301.805 361.028 301.668 359.614 C 301.467 357.541,298.600 357.290,298.600 359.346 M335.701 363.000 C 335.705 363.880,335.787 364.193,335.883 363.695 C 335.979 363.198,335.975 362.478,335.875 362.095 C 335.775 361.713,335.696 362.120,335.701 363.000 M98.400 365.400 C 98.400 366.763,98.358 366.800,96.824 366.800 C 95.292 366.800,95.245 366.842,95.124 368.300 C 95.020 369.564,94.842 369.818,94.000 369.912 C 91.511 370.191,91.200 370.379,91.200 371.608 C 91.200 372.263,91.020 372.800,90.800 372.800 C 90.580 372.800,90.400 372.970,90.400 373.179 C 90.400 373.654,94.016 373.255,94.700 372.705 C 94.975 372.483,95.200 371.906,95.200 371.422 C 95.200 370.737,95.533 370.459,96.700 370.171 C 98.000 369.849,98.216 369.630,98.324 368.523 C 98.436 367.366,98.587 367.234,99.924 367.123 C 101.315 367.007,101.407 366.914,101.524 365.500 L 101.648 364.000 100.024 364.000 C 98.435 364.000,98.400 364.030,98.400 365.400 M83.972 365.434 C 83.259 366.293,82.993 370.465,83.580 371.563 C 84.223 372.764,88.000 374.169,88.000 373.208 C 88.000 372.984,87.771 372.800,87.491 372.800 C 86.864 372.800,86.000 369.257,86.000 366.688 C 86.000 364.646,85.092 364.084,83.972 365.434 M304.801 366.789 C 304.807 367.589,306.520 369.600,307.194 369.600 C 307.793 369.600,308.000 369.864,308.000 370.626 C 308.000 372.190,308.710 373.200,309.809 373.200 C 310.645 373.200,310.829 373.438,311.046 374.800 C 311.285 376.292,311.391 376.400,312.624 376.400 C 314.027 376.400,314.655 377.271,314.168 378.540 C 313.872 379.310,314.719 379.737,316.071 379.501 L 317.000 379.339 316.000 378.895 C 315.450 378.651,315.180 378.437,315.400 378.419 C 315.620 378.402,315.554 378.232,315.253 378.041 C 314.952 377.851,314.626 376.908,314.529 375.947 C 314.268 373.367,314.153 373.200,312.637 373.200 C 311.321 373.200,311.242 373.121,311.124 371.700 C 311.010 370.321,310.887 370.184,309.600 370.000 C 308.321 369.817,308.189 369.673,308.078 368.340 C 307.971 367.056,304.793 365.552,304.801 366.789 M319.400 383.600 C 319.798 384.040,320.186 384.400,320.262 384.400 C 320.338 384.400,320.400 384.040,320.400 383.600 C 320.400 383.047,320.133 382.800,319.538 382.800 C 318.701 382.800,318.697 382.824,319.400 383.600 M320.905 386.843 C 321.478 388.247,324.025 389.678,323.790 388.464 C 323.719 388.099,323.647 387.350,323.630 386.800 C 323.603 385.922,323.405 385.789,322.002 385.708 L 320.404 385.615 320.905 386.843 M335.386 388.200 C 335.097 388.620,333.765 388.787,330.095 388.865 C 327.397 388.921,325.241 389.065,325.304 389.184 C 325.368 389.303,325.775 389.996,326.210 390.725 L 327.000 392.050 330.868 391.925 C 335.259 391.783,335.141 391.841,335.649 389.578 C 336.062 387.742,335.983 387.330,335.386 388.200 " stroke="none" fill="#060c09" fill-rule="evenodd"></path><path id="path3" d="M248.900 213.596 C 248.185 214.032,247.600 214.540,247.600 214.726 C 247.600 214.912,246.879 215.860,245.999 216.832 C 245.118 217.804,244.205 219.320,243.969 220.200 C 243.733 221.080,243.132 222.430,242.633 223.200 C 241.549 224.872,240.958 226.699,240.632 229.385 C 240.500 230.477,240.027 232.071,239.580 232.927 C 237.740 236.459,237.508 238.859,237.509 254.400 C 237.509 271.945,237.676 273.266,240.266 276.298 C 242.179 278.537,243.005 278.992,242.435 277.493 C 242.245 276.994,242.240 275.636,242.424 274.476 C 243.008 270.778,243.559 256.935,243.542 246.400 C 243.532 240.614,243.695 235.767,243.918 235.200 C 245.911 230.135,252.902 229.276,255.200 233.815 C 256.277 235.942,255.728 254.653,254.389 261.484 C 253.200 267.544,252.934 275.200,253.912 275.200 C 255.908 275.200,256.400 274.190,256.406 270.077 C 256.410 267.473,256.684 265.149,257.240 263.000 C 258.846 256.786,259.184 252.788,259.192 239.920 C 259.200 227.048,259.019 225.159,257.365 220.932 C 256.834 219.574,256.400 218.064,256.400 217.575 C 256.400 214.668,251.449 212.042,248.900 213.596 " stroke="none" fill="#d81818" fill-rule="evenodd"></path><path id="path4" d="M164.882 217.139 C 163.437 218.474,162.632 219.589,162.349 220.648 C 162.120 221.501,161.387 222.891,160.718 223.737 C 159.746 224.967,159.438 225.844,159.175 228.137 C 158.995 229.711,158.354 232.440,157.751 234.200 C 156.327 238.355,155.794 258.967,156.961 264.726 C 157.312 266.461,157.600 268.441,157.600 269.126 C 157.600 270.910,159.543 271.727,162.100 271.018 C 163.386 270.662,163.391 270.634,162.572 268.350 C 162.102 267.042,162.010 265.866,162.207 263.692 C 162.435 261.171,162.359 260.596,161.635 259.369 C 160.483 257.418,160.433 252.042,161.552 250.462 C 162.415 249.242,162.724 247.323,163.143 240.591 C 163.455 235.561,163.655 235.000,166.182 232.079 C 167.419 230.649,170.218 229.551,171.441 230.016 C 174.145 231.044,174.794 229.847,174.798 223.826 C 174.803 215.958,169.808 212.590,164.882 217.139 " stroke="none" fill="#12cc04" fill-rule="evenodd"></path></g></svg>